<?xml version="1.0" encoding="UTF-8"?>
<svg version="1.1" xmlns="http://www.w3.org/2000/svg" width="672" height="612">
<path d="M0 0 C0.98347412 -0.00189835 1.96694824 -0.00379669 2.98022461 -0.00575256 C6.19897693 -0.00942733 9.41749854 0.00119637 12.63623047 0.01245117 C14.889638 0.01364492 17.14304603 0.01409572 19.39645386 0.01383972 C24.10515485 0.01539888 28.81377921 0.02364566 33.52246094 0.03710938 C39.54567582 0.05411778 45.56880683 0.05792276 51.59204292 0.05716419 C56.24011021 0.0574366 60.88815932 0.06292881 65.53622055 0.07016563 C67.7568943 0.0733379 69.97757011 0.07531632 72.198246 0.07605934 C75.30407443 0.07823715 78.40981549 0.08701183 81.515625 0.09765625 C82.42492767 0.09720306 83.33423035 0.09674988 84.27108765 0.09628296 C97.74939042 0.16353314 97.74939042 0.16353314 103.59716797 2.63354492 C106.30499898 3.72353928 109.00201611 4.71879 111.78466797 5.60229492 C130.27563841 11.50425379 149.36287269 18.86626901 164.44091797 31.44213867 C165.66471662 32.4495872 166.90764806 33.43779386 168.20751953 34.3449707 C174.66827564 38.90857409 180.14044683 44.45200381 185.69335938 50.04711914 C187.38175265 51.74627587 189.08063066 53.43442285 190.78076172 55.12182617 C191.87124762 56.21363309 192.96111326 57.30605995 194.05029297 58.39916992 C194.55139587 58.89622437 195.05249878 59.39327881 195.56878662 59.90539551 C198.72995218 63.10857036 201.22978251 66.44213849 203.62841797 70.24291992 C204.74911836 71.82929947 205.87397148 73.41275535 207.00341797 74.99291992 C209.91571459 79.14092449 212.59404709 83.37092696 215.15576172 87.74291992 C216.14567709 89.42341287 217.15926758 91.09016119 218.19482422 92.74291992 C221.7177148 98.39367174 224.30297732 104.01546871 226.62841797 110.24291992 C227.25191691 111.74354448 227.87695983 113.24352831 228.50341797 114.74291992 C234.72368064 130.36704428 240.6466212 147.08181057 241.45263672 163.98510742 C241.48854849 166.27688024 241.48854849 166.27688024 242.62841797 168.24291992 C242.7238393 169.89698134 242.75636922 171.55485904 242.7578125 173.21166992 C242.76254074 174.76337891 242.76254074 174.76337891 242.7673645 176.34643555 C242.76534027 177.46727539 242.76331604 178.58811523 242.76123047 179.74291992 C242.76218719 180.88954102 242.76314392 182.03616211 242.76412964 183.2175293 C242.76481108 185.64526423 242.76295932 188.07300098 242.75878906 190.50073242 C242.75344034 194.22733636 242.75873532 197.95381976 242.76513672 201.68041992 C242.76447593 204.03458686 242.76319476 206.38875371 242.76123047 208.74291992 C242.7632547 209.86375977 242.76527893 210.98459961 242.7673645 212.1394043 C242.76421234 213.17387695 242.76106018 214.20834961 242.7578125 215.27416992 C242.75661911 216.64412109 242.75661911 216.64412109 242.75540161 218.04174805 C242.62841797 220.24291992 242.62841797 220.24291992 241.62841797 222.24291992 C241.49587507 223.61547523 241.39757594 224.99139979 241.31591797 226.36791992 C240.32268746 237.24615884 237.49589861 250.53682044 232.58154297 260.32885742 C231.09402819 263.31607972 230.96979527 264.94980644 231.62841797 268.24291992 C233.40505622 269.93670976 235.30180122 271.23432564 237.33935547 272.60229492 C239.75690668 274.3350108 241.69640418 276.22354261 243.75341797 278.36791992 C246.00565162 280.69026201 247.9169455 282.43527161 250.62841797 284.24291992 C254.07802279 286.54265647 256.67725549 289.22834661 259.50341797 292.24291992 C261.57061082 294.32750106 261.57061082 294.32750106 264.14990234 295.77319336 C269.15649715 299.07266736 273.19906787 303.52880833 277.40966797 307.75854492 C278.34137817 308.68834167 279.27308838 309.61813843 280.23303223 310.57611084 C282.19963645 312.53977742 284.16260713 314.50698625 286.12304688 316.47680664 C288.61752708 318.9826489 291.1208381 321.47944481 293.62699127 323.97360611 C296.03861844 326.37620062 298.4425233 328.78646183 300.84716797 331.19604492 C301.73795044 332.08277893 302.62873291 332.96951294 303.54650879 333.88311768 C307.85455276 338.22345289 311.85229008 342.55267629 315.39123535 347.54705811 C316.62716633 349.24120425 317.95662632 350.76579768 319.37841797 352.30541992 C326.88869152 361.00873172 332.71516714 371.05405457 338.06591797 381.18041992 C338.68515137 382.35072754 338.68515137 382.35072754 339.31689453 383.54467773 C343.895063 392.40235628 346.09875767 399.36464433 346.13232422 409.34838867 C346.14230942 410.39062088 346.15229462 411.43285309 346.1625824 412.50666809 C346.17769837 414.69760185 346.18481023 416.88860399 346.18432617 419.07958984 C346.1909199 422.43140122 346.24556098 425.78029931 346.30224609 429.1315918 C346.31104329 431.26634734 346.31700076 433.40111687 346.31982422 435.53588867 C346.34138077 436.53492722 346.36293732 437.53396576 346.38514709 438.5632782 C346.31866659 445.29637903 346.31866659 445.29637903 344.38668823 447.94570923 C342.83520508 449.28710937 342.83520508 449.28710937 339.62841797 451.24291992 C338.95375488 451.66984131 338.2790918 452.0967627 337.58398438 452.53662109 C333.28487846 454.08934437 328.51793061 453.56906718 324.00341797 453.55541992 C322.43914062 453.57958984 322.43914062 453.57958984 320.84326172 453.60424805 C310.88874048 453.61046186 302.68542145 450.96451846 293.69091797 446.93041992 C293.00126953 446.62483154 292.31162109 446.31924316 291.60107422 446.00439453 C286.79478359 443.84391757 282.16649382 441.45710444 277.57763672 438.86401367 C271.36980533 435.45176198 264.97772396 432.38172364 258.62841797 429.24291992 C259.58554688 430.18264648 259.58554688 430.18264648 260.56201172 431.14135742 C261.80144531 432.36725586 261.80144531 432.36725586 263.06591797 433.61791992 C263.88962891 434.4300293 264.71333984 435.24213867 265.56201172 436.07885742 C268.32011008 438.9673007 268.75524924 440.42958678 268.76123047 444.30541992 C268.76251953 445.10206055 268.76380859 445.89870117 268.76513672 446.71948242 C268.76126953 447.5522168 268.75740234 448.38495117 268.75341797 449.24291992 C268.75728516 450.0756543 268.76115234 450.90838867 268.76513672 451.76635742 C268.76384766 452.56299805 268.76255859 453.35963867 268.76123047 454.18041992 C268.75953857 455.27676758 268.75953857 455.27676758 268.7578125 456.39526367 C268.62841797 458.24291992 268.62841797 458.24291992 267.62841797 460.24291992 C267.52141098 461.57456241 267.44328266 462.9085606 267.37841797 464.24291992 C266.77489914 471.11297594 264.70755802 477.57674921 262.78466797 484.16870117 C261.91053474 487.17387774 261.17049099 490.15679968 260.62841797 493.24291992 C261.31806641 493.19651367 262.00771484 493.15010742 262.71826172 493.10229492 C270.54460517 492.80169462 276.26675067 493.84550551 282.51904297 498.71557617 C285.69091413 501.85039276 287.07657999 504.59227968 287.44091797 509.05541992 C286.95409743 516.33559978 282.62654845 521.57167249 277.33544922 526.28588867 C275.14211583 528.00895963 272.90199642 529.62811685 270.62841797 531.24291992 C269.84595703 531.8797168 269.06349609 532.51651367 268.25732422 533.17260742 C265.34517551 535.46597862 262.31250965 537.50189343 259.19091797 539.49291992 C258.58183594 539.88205566 257.97275391 540.27119141 257.34521484 540.67211914 C244.06716983 549.08177509 230.23335117 556.91322682 215.51904297 562.51635742 C213.58247645 563.22564075 213.58247645 563.22564075 211.62841797 564.24291992 C212.45986328 565.01635742 213.29130859 565.78979492 214.14794922 566.58666992 C221.01360711 573.11009472 225.52118785 577.59953924 227.12841797 587.24291992 C226.26256502 592.4380376 223.81253023 596.52590494 219.65576172 599.79370117 C217.68205982 601.04432723 215.70694575 602.17679633 213.62841797 603.24291992 C212.96970703 603.59354492 212.31099609 603.94416992 211.63232422 604.30541992 C204.56057505 607.61384059 196.77803371 607.42362871 189.12841797 607.43041992 C188.23123047 607.43122559 187.33404297 607.43203125 186.40966797 607.43286133 C179.89660574 607.37701381 179.89660574 607.37701381 177.62841797 606.24291992 C175.32777478 605.89287303 175.32777478 605.89287303 172.75341797 605.80541992 C171.88974609 605.74483398 171.02607422 605.68424805 170.13623047 605.62182617 C169.30865234 605.82678711 168.48107422 606.03174805 167.62841797 606.24291992 C167.07089844 607.23074463 166.51337891 608.21856934 165.93896484 609.23632812 C163.62841797 612.24291992 163.62841797 612.24291992 160.21191406 612.98754883 C158.85879773 613.01355695 157.50474213 613.00550924 156.15185547 612.96948242 C155.42656647 612.97047943 154.70127747 612.97147644 153.95401001 612.97250366 C152.4190984 612.96782939 150.88417053 612.94841248 149.34960938 612.9152832 C147.03094877 612.86847569 144.71695624 612.87410935 142.39794922 612.88745117 C134.1459569 612.85553352 127.03412747 612.20427922 119.62841797 608.24291992 C118.8244458 607.83452881 118.02047363 607.4261377 117.19213867 607.00537109 C114.94314105 605.83659475 112.79031195 604.56516724 110.62841797 603.24291992 C109.94908203 602.86006836 109.26974609 602.4772168 108.56982422 602.08276367 C101.63939499 597.66512165 98.0278316 590.52091986 94.62841797 583.24291992 C94.62841797 582.25291992 94.62841797 581.26291992 94.62841797 580.24291992 C93.20529297 580.95448242 93.20529297 580.95448242 91.75341797 581.68041992 C87.91277427 583.33747184 84.34384763 583.68607681 80.20263672 583.99682617 C73.43954577 584.42759843 73.43954577 584.42759843 67.62841797 587.24291992 C64.97856998 587.45420348 62.345019 587.61904658 59.69091797 587.74291992 C54.50139179 587.78583228 54.50139179 587.78583228 49.62841797 589.24291992 C47.79057851 589.33900056 45.94923541 589.37087884 44.10888672 589.37231445 C42.95428955 589.37546661 41.79969238 589.37861877 40.61010742 589.38186646 C39.3580249 589.37984222 38.10594238 589.37781799 36.81591797 589.37573242 C34.89622192 589.37716751 34.89622192 589.37716751 32.93774414 589.37863159 C30.22752681 589.38010681 27.51734241 589.37795965 24.80712891 589.37329102 C21.33000568 589.36759382 17.85295963 589.37087376 14.37583923 589.37686348 C11.06419259 589.38134202 7.75256681 589.37820808 4.44091797 589.37573242 C3.18883545 589.37775665 1.93675293 589.37978088 0.64672852 589.38186646 C-0.50786865 589.37871429 -1.66246582 589.37556213 -2.85205078 589.37231445 C-3.87194092 589.37151886 -4.89183105 589.37072327 -5.94262695 589.36990356 C-8.37158203 589.24291992 -8.37158203 589.24291992 -10.37158203 588.24291992 C-12.36810012 588.03873057 -14.36918024 587.87769697 -16.37158203 587.74291992 C-22.14935981 587.35403103 -22.14935981 587.35403103 -24.37158203 586.24291992 C-26.32625808 586.03776442 -28.28575884 585.87715721 -30.24658203 585.74291992 C-36.04363361 585.34410556 -36.04363361 585.34410556 -38.31811523 584.64233398 C-40.80634828 584.15835476 -41.87030538 584.56238582 -44.17236328 585.57104492 C-45.25723022 586.02713135 -45.25723022 586.02713135 -46.36401367 586.49243164 C-47.12963623 586.82259277 -47.89525879 587.15275391 -48.68408203 587.49291992 C-55.95089715 590.49634897 -62.88101864 592.44026488 -70.62548828 593.73510742 C-73.27423757 593.95666256 -73.27423757 593.95666256 -74.37158203 595.24291992 C-77.43254114 595.38188888 -80.46909502 595.45626044 -83.53173828 595.48120117 C-84.46900253 595.48927292 -85.40626678 595.49734467 -86.37193298 595.50566101 C-88.37025083 595.51953642 -90.36859273 595.53024299 -92.36694336 595.53808594 C-95.36963177 595.55505568 -98.37114708 595.59887669 -101.37353516 595.64331055 C-116.62899851 595.76655017 -132.63622364 595.30299334 -144.39892578 584.35620117 C-147.32639931 581.3127881 -149.17409232 579.25011742 -149.99658203 575.05541992 C-149.30645168 571.94983334 -148.19954211 569.83253004 -146.37158203 567.24291992 C-148.71047557 566.07347315 -150.32915928 566.07309957 -152.93408203 565.93041992 C-160.03945256 565.24346491 -165.88009665 563.17710165 -170.93408203 557.99291992 C-173.32768775 554.8395461 -174.35500999 552.26539385 -174.00830078 548.28979492 C-172.1577112 542.34066032 -167.18869986 538.40003474 -161.93408203 535.43041992 C-155.14162958 532.31326345 -147.70416676 531.36191238 -140.37158203 530.24291992 C-140.90267578 529.7350293 -141.43376953 529.22713867 -141.98095703 528.70385742 C-146.01101405 524.77675806 -149.39354143 521.04621122 -152.37158203 516.24291992 C-152.84724609 515.61901367 -153.32291016 514.99510742 -153.81298828 514.35229492 C-166.75048238 497.18234916 -174.3811471 476.36630425 -177.82861328 455.30541992 C-178.20481655 452.33961499 -178.20481655 452.33961499 -179.37158203 450.24291992 C-179.68806594 446.90225642 -179.88286728 443.56074381 -180.09033203 440.21166992 C-180.18446266 437.31643982 -180.18446266 437.31643982 -181.37158203 435.24291992 C-181.50573675 432.57055783 -181.41476744 429.92041504 -181.37158203 427.24291992 C-182.04833984 427.56131836 -182.72509766 427.8797168 -183.42236328 428.20776367 C-186.8792634 429.42111272 -189.9046051 429.62442897 -193.55908203 429.80541992 C-198.12885412 429.88449427 -198.12885412 429.88449427 -202.37158203 431.24291992 C-203.72191001 431.3813785 -205.07783842 431.46795877 -206.43408203 431.52416992 C-207.23072266 431.56155273 -208.02736328 431.59893555 -208.84814453 431.63745117 C-210.5304362 431.70776367 -212.21272786 431.77807617 -213.89501953 431.84838867 C-214.69166016 431.88577148 -215.48830078 431.9231543 -216.30908203 431.96166992 C-217.03998047 431.99196289 -217.77087891 432.02225586 -218.52392578 432.0534668 C-220.46543973 432.14249566 -220.46543973 432.14249566 -222.37158203 433.24291992 C-225.45164115 433.55792597 -228.53258115 433.7537564 -231.62158203 433.96166992 C-234.33024196 434.07479484 -234.33024196 434.07479484 -236.37158203 435.24291992 C-240.98446483 435.59959545 -245.60036314 435.68542579 -250.22485352 435.7578125 C-251.75815895 435.78908481 -253.29123689 435.83644276 -254.82348633 435.90136719 C-266.78519889 436.40036903 -275.58036399 434.37500796 -285.37158203 427.24291992 C-289.55796189 422.50419774 -292.58002204 417.47799119 -294.09033203 411.30541992 C-295.652158 404.93793324 -295.652158 404.93793324 -299.97705078 400.23510742 C-302.0543679 399.10298276 -304.15031876 398.00447845 -306.26220703 396.93823242 C-314.63744945 392.3718314 -320.05826799 385.05827005 -323.37158203 376.24291992 C-323.62979736 375.5892041 -323.8880127 374.93548828 -324.15405273 374.26196289 C-326.69420336 367.05369207 -326.86399709 359.93217399 -326.81762695 352.3659668 C-326.8090938 350.24584395 -326.8380075 348.12840493 -326.86962891 346.00854492 C-326.91701291 337.18111237 -326.5798427 328.68923913 -320.23095703 321.98120117 C-319.18681641 321.27543945 -319.18681641 321.27543945 -318.12158203 320.55541992 C-315.92278151 319.20220989 -315.92278151 319.20220989 -314.37158203 317.24291992 C-313.7512893 311.88881423 -315.00341129 307.25452891 -316.55908203 302.18041992 C-319.39156578 292.50727852 -321.61429252 282.72905763 -323.76489258 272.88500977 C-324.25584467 270.74694798 -324.82226937 268.62630792 -325.41137695 266.51318359 C-326.54332627 261.99172758 -326.76357755 257.60401865 -326.84814453 252.95776367 C-326.86428802 252.09784317 -326.88043152 251.23792267 -326.89706421 250.35194397 C-326.92454689 248.54606973 -326.94607892 246.74009596 -326.96191406 244.93408203 C-326.98505251 243.09620488 -327.02611454 241.25846725 -327.08496094 239.42138672 C-327.57167349 224.19054662 -327.57167349 224.19054662 -324.68701172 219.5090332 C-322.64224378 217.675384 -320.83636122 216.43611391 -318.37158203 215.24291992 C-317.69949707 214.88576904 -317.02741211 214.52861816 -316.33496094 214.16064453 C-310.69165355 211.52284393 -304.60527031 210.95414396 -298.47314453 210.48901367 C-296.3168563 210.35728689 -296.3168563 210.35728689 -294.37158203 209.24291992 C-291.8128031 208.93171708 -289.25306592 208.73327326 -286.68408203 208.52416992 C-284.34889748 208.37155945 -284.34889748 208.37155945 -282.37158203 207.24291992 C-279.51950425 206.93036345 -276.6666135 206.7325451 -273.80517578 206.52416992 C-271.42614898 206.5045707 -271.42614898 206.5045707 -270.37158203 205.24291992 C-268.3964833 205.03348383 -266.41586521 204.8748817 -264.43408203 204.74291992 C-260.24990788 204.56556909 -260.24990788 204.56556909 -256.37158203 203.24291992 C-253.55214987 202.92964968 -250.73180121 202.73262028 -247.90283203 202.52416992 C-245.380842 202.3915938 -245.380842 202.3915938 -243.37158203 201.24291992 C-240.03091853 200.92643601 -236.68940592 200.73163468 -233.34033203 200.52416992 C-230.44510193 200.4300393 -230.44510193 200.4300393 -228.37158203 199.24291992 C-225.8128031 198.93171708 -223.25306592 198.73327326 -220.68408203 198.52416992 C-218.34889748 198.37155945 -218.34889748 198.37155945 -216.37158203 197.24291992 C-213.29152291 196.92791388 -210.21058291 196.73208344 -207.12158203 196.52416992 C-204.41292211 196.411045 -204.41292211 196.411045 -202.37158203 195.24291992 C-198.16998456 194.91705481 -193.95923993 194.91823397 -189.74658203 194.86791992 C-188.58255859 194.83053711 -187.41853516 194.7931543 -186.21923828 194.75463867 C-176.52972272 194.65587804 -171.68165675 196.90321422 -164.87158203 203.55541992 C-164.04658203 204.44229492 -163.22158203 205.32916992 -162.37158203 206.24291992 C-162.34468099 203.45118937 -162.3247915 200.65971644 -162.30908203 197.86791992 C-162.30070313 197.07385742 -162.29232422 196.27979492 -162.28369141 195.46166992 C-162.14118052 191.2189977 -162.14118052 191.2189977 -163.37158203 187.24291992 C-163.60235126 181.70445838 -163.60235126 181.70445838 -162.37158203 179.24291992 C-162.2432377 177.76705039 -162.16946764 176.28620653 -162.12548828 174.80541992 C-162.07618164 173.46157227 -162.07618164 173.46157227 -162.02587891 172.09057617 C-161.9656913 170.22347978 -161.90830061 168.35629066 -161.85400391 166.48901367 C-161.23650604 150.10784393 -161.23650604 150.10784393 -158.37158203 147.24291992 C-158.03853336 145.90869559 -157.74758214 144.56386723 -157.47705078 143.21557617 C-156.48681855 138.59479665 -155.18951861 134.15719194 -153.68408203 129.68041992 C-153.29542969 128.52304321 -153.29542969 128.52304321 -152.89892578 127.34228516 C-147.7184955 112.25890734 -140.63537858 98.40762442 -132.24658203 84.86791992 C-131.82658936 84.18922852 -131.40659668 83.51053711 -130.97387695 82.8112793 C-128.63799843 79.09160398 -126.18586959 75.62575042 -123.37158203 72.24291992 C-122.74638672 71.45272461 -122.12119141 70.6625293 -121.47705078 69.84838867 C-112.48928102 58.51757507 -103.06978223 46.9620795 -91.17626953 38.55541992 C-89.41526335 37.27468815 -87.85155416 35.89964814 -86.24658203 34.43041992 C-70.1690837 20.6598474 -46.9672136 8.47427623 -26.37158203 3.61791992 C-25.46408203 3.3987793 -24.55658203 3.17963867 -23.62158203 2.95385742 C-22.54908203 2.71924805 -21.47658203 2.48463867 -20.37158203 2.24291992 C-19.66529726 2.0784521 -18.95901249 1.91398428 -18.23132515 1.74453259 C-12.07978304 0.39210529 -6.28594151 -0.03902096 0 0 Z M-155.37158203 232.24291992 C-154.37158203 234.24291992 -154.37158203 234.24291992 -154.37158203 234.24291992 Z M-154.37158203 234.24291992 C-153.37158203 236.24291992 -153.37158203 236.24291992 -153.37158203 236.24291992 Z M-153.37158203 236.24291992 C-153.39220703 237.52166992 -153.41283203 238.80041992 -153.43408203 240.11791992 C-153.44568359 240.8372168 -153.45728516 241.55651367 -153.46923828 242.29760742 C-153.49807445 244.32477397 -153.49807445 244.32477397 -152.37158203 246.24291992 C-152.13799405 248.80373634 -151.98995134 251.36297026 -151.84814453 253.93041992 C-151.57771642 256.61319396 -151.57771642 256.61319396 -148.37158203 258.24291992 C-147.38158203 257.58291992 -146.39158203 256.92291992 -145.37158203 256.24291992 C-144.38957352 251.08737525 -146.34871175 248.3021056 -149.12548828 244.21166992 C-150.72195425 241.68935378 -151.5830878 239.11017167 -152.37158203 236.24291992 C-152.70158203 236.24291992 -153.03158203 236.24291992 -153.37158203 236.24291992 Z M252.62841797 424.24291992 C252.95841797 425.23291992 253.28841797 426.22291992 253.62841797 427.24291992 C255.64350155 427.97615788 255.64350155 427.97615788 257.62841797 428.24291992 C256.31641393 426.88859317 254.98210393 425.5555851 253.62841797 424.24291992 C253.29841797 424.24291992 252.96841797 424.24291992 252.62841797 424.24291992 Z " fill="#0A0B09" transform="translate(326.37158203125,-0.242919921875)"/>
<path d="M0 0 C8.79952963 6.43112621 13.35295636 14.30930257 17.19921875 24.37890625 C17.44148193 25.00635742 17.68374512 25.63380859 17.93334961 26.28027344 C21.6464081 36.54000582 22.18450821 46.67231988 22.07421875 57.50390625 C22.07325195 59.31955078 22.07325195 59.31955078 22.07226562 61.171875 C21.98475455 79.04358053 21.98475455 79.04358053 19.53442383 82.0234375 C17.03626185 84.07852645 14.20314704 85.17737977 11.26171875 86.50390625 C-2.11713723 92.9639677 -10.54696759 104.95504189 -15.84765625 118.63671875 C-17.06487716 122.23578551 -17.63631647 124.63048716 -17.11328125 128.37890625 C-14.79055431 131.47587551 -12.5716268 131.87756553 -8.86328125 132.56640625 C-2.5061626 134.13886814 0.10264173 137.27862852 3.88671875 142.37890625 C4.66789062 143.05566406 4.66789062 143.05566406 5.46484375 143.74609375 C7.51204222 146.09699749 7.88338698 148.49768606 8.63671875 151.50390625 C11.70800797 161.92311005 17.43343883 168.20447935 26.88671875 173.37890625 C27.47710937 173.71921875 28.0675 174.05953125 28.67578125 174.41015625 C36.78236836 178.2670347 48.4450736 177.56101745 56.76171875 174.81640625 C70.28580166 168.97692217 78.04244698 159.48209132 83.734375 146.0859375 C84.90356604 143.3393294 86.17845999 140.67438002 87.51171875 138.00390625 C87.9190625 137.18535156 88.32640625 136.36679688 88.74609375 135.5234375 C89.88671875 133.37890625 89.88671875 133.37890625 91.76171875 130.69140625 C93.46094195 127.19855856 92.92276118 125.06980739 91.88671875 121.37890625 C90.71550848 119.94742704 89.53529611 118.52021838 88.2734375 117.16796875 C86.53317784 114.92278868 85.56083048 112.61565419 84.44921875 110.00390625 C81.1970848 102.57333393 77.83931978 97.56047807 70.94921875 93.19140625 C68.22324102 91.12738602 67.04811521 90.17154222 66.359375 86.7890625 C66.53825335 83.22525541 67.12896838 79.85421763 67.88671875 76.37890625 C68.05075195 75.57485352 68.21478516 74.77080078 68.38378906 73.94238281 C73.01522351 51.56963368 80.81639638 34.72790473 96.88671875 18.37890625 C97.593125 17.63640625 98.29953125 16.89390625 99.02734375 16.12890625 C111.66906666 3.77668845 128.25549998 -0.46755967 145.44921875 -1.05859375 C153.36523672 -0.88323892 160.4128663 0.92163281 167.88671875 3.37890625 C168.80324219 3.67925781 169.71976562 3.97960937 170.6640625 4.2890625 C191.61851506 11.93594803 207.12363715 29.87529058 216.88671875 49.37890625 C230.84823749 80.03759636 233.12959158 113.40999513 221.69921875 145.31640625 C213.71905877 166.25374027 199.84229014 182.77955463 181.67578125 195.66015625 C180.94359375 196.19898438 180.21140625 196.7378125 179.45703125 197.29296875 C178.79461426 197.76686035 178.13219727 198.24075195 177.44970703 198.72900391 C175.39807116 200.89472637 175.09727021 202.42946474 174.88671875 205.37890625 C176.4286316 208.58608498 178.17265078 211.36151737 180.2109375 214.265625 C204.40540114 249.06588093 213.08764978 293.95803797 213.19921875 335.56640625 C213.20183716 336.49965729 213.20445557 337.43290833 213.20715332 338.3944397 C213.21157609 353.12021775 212.29696371 367.00106991 208.88671875 381.37890625 C208.59428052 382.74592892 208.30256112 384.11310566 208.01171875 385.48046875 C200.74478103 416.30007067 180.55631273 447.84131765 153.48364258 464.97094727 C137.36401266 474.74660315 119.50559189 480.87775447 100.95947266 484.02294922 C99.53259202 484.2679895 98.10782578 484.52556408 96.68505859 484.79345703 C45.63962848 494.33154351 -16.55450175 485.21727554 -60.08203125 455.75 C-77.28155451 443.67309407 -91.5291865 429.28396327 -101.11328125 410.37890625 C-101.70882812 409.21359375 -102.304375 408.04828125 -102.91796875 406.84765625 C-113.08125273 385.86222712 -118.57512052 360.68820596 -118.11328125 337.37890625 C-117.25605469 337.15976562 -116.39882812 336.940625 -115.515625 336.71484375 C-105.60187183 334.03282744 -105.60187183 334.03282744 -98.11328125 327.37890625 C-91.64996614 314.51475705 -97.06342812 297.90454769 -99.67578125 284.37890625 C-100.17333476 281.78775413 -100.66781297 279.19617802 -101.15354919 276.6027832 C-101.4525215 275.00752955 -101.75807351 273.41348819 -102.07167053 271.82104492 C-103.53832135 264.01674302 -103.63485582 257.38041789 -100.61328125 249.87890625 C-100.34628418 249.1945752 -100.07928711 248.51024414 -99.80419922 247.80517578 C-96.71798568 240.09052321 -93.02137252 232.70471284 -89.11328125 225.37890625 C-88.79101562 224.76772949 -88.46875 224.15655273 -88.13671875 223.52685547 C-83.88472139 215.52627304 -79.0669472 208.3783873 -73.41015625 201.31640625 C-69.0113082 196.14527949 -69.0113082 196.14527949 -66.78979492 189.9362793 C-67.20332535 186.66704816 -68.1969314 185.75042822 -70.5859375 183.5234375 C-71.31756104 182.82404053 -72.04918457 182.12464355 -72.80297852 181.40405273 C-73.58600342 180.67387939 -74.36902832 179.94370605 -75.17578125 179.19140625 C-86.98595945 167.74912376 -86.98595945 167.74912376 -91.11328125 160.37890625 C-91.43586914 159.80350098 -91.75845703 159.2280957 -92.09082031 158.63525391 C-106.96223633 131.67653702 -109.86113984 100.150408 -101.859375 70.546875 C-93.37809858 41.2714484 -76.54761829 15.21208741 -49.44384766 0.06347656 C-33.55162495 -8.38183297 -15.47329646 -10.17008423 0 0 Z " fill="#F9F9F9" transform="translate(289.11328125,80.62109375)"/>
<path d="M0 0 C0.763125 0.00902344 1.52625 0.01804688 2.3125 0.02734375 C2.869375 0.03894531 3.42625 0.05054688 4 0.0625 C9.47689465 25.3481096 14.00557534 50.78464727 18.16955566 76.31411743 C20.77798777 92.25509677 23.77920733 108.11929288 26.84106445 123.97875977 C28.66546103 133.48731115 30.37057895 142.99490259 31.7578125 152.578125 C31.9452729 153.86160072 31.9452729 153.86160072 32.13652039 155.17100525 C32.96966078 161.14865782 33.38180515 167.02432232 33 173.0625 C28.45419897 174.44261736 24.11179487 175.44589807 19.38818359 176.06811523 C18.11510345 176.23846786 16.84202332 176.4088205 15.53036499 176.58433533 C14.15306537 176.76332827 12.77575594 176.9422457 11.3984375 177.12109375 C9.95652913 177.31234345 8.5146866 177.50409005 7.07290649 177.69630432 C3.27744643 178.20109714 -0.51878715 178.6998077 -4.31524658 179.19702148 C-10.32594081 179.98546548 -16.33530499 180.7840257 -22.3449173 181.58066559 C-24.52896092 181.86975665 -26.71316713 182.15759339 -28.8973999 182.44525146 C-37.78831892 183.61878728 -46.67176829 184.83594607 -55.53652954 186.19517517 C-73.0132821 188.7982901 -73.0132821 188.7982901 -79.78125 185.8515625 C-83.29484566 183.0184167 -83.78896025 180.20435081 -84.58984375 175.87109375 C-84.70457031 174.75863281 -84.81929687 173.64617187 -84.9375 172.5 C-85.07027344 171.38496094 -85.20304687 170.26992188 -85.33984375 169.12109375 C-85 166.0625 -85 166.0625 -82.73046875 163.9609375 C-81.82941406 163.33445312 -80.92835937 162.70796875 -80 162.0625 C-71.13882512 151.26633387 -67.89211122 141.00886462 -69 127.0625 C-71.11167262 117.13193145 -78.18408794 109.45937653 -86.375 103.8125 C-88.78591368 102.30037281 -91.10760028 101.0169032 -93.73156738 99.90496826 C-97.88388962 98.05604243 -101.15926912 96.58438734 -103.41040039 92.50939941 C-104.37182474 89.35642733 -105.02412305 86.26231158 -105.59375 83.015625 C-105.8374231 81.849245 -106.08109619 80.68286499 -106.33215332 79.48114014 C-107.0988416 75.76558871 -107.80073555 72.04126737 -108.5 68.3125 C-109.24228413 64.60204462 -109.99748874 60.89437764 -110.75354004 57.18670654 C-111.21778356 54.88494136 -111.67146154 52.58101049 -112.1126709 50.27471924 C-113.2347739 44.45346456 -114.55412238 38.8230058 -116.38276672 33.18087769 C-117.27567403 30.11637196 -117.5184522 27.11559863 -117.6875 23.9375 C-117.75324219 22.82117188 -117.81898437 21.70484375 -117.88671875 20.5546875 C-117.92410156 19.73226562 -117.96148437 18.90984375 -118 18.0625 C-110.82358438 14.99588631 -103.54242057 13.66368046 -95.875 12.375 C-95.16354828 12.25299225 -94.45209656 12.1309845 -93.71908569 12.00527954 C-67.91017389 7.61165498 -41.83889336 4.63886515 -15.86196899 1.42098999 C-14.10286062 1.20064423 -12.34436569 0.97524406 -10.58700562 0.74136353 C-7.03588021 0.27120257 -3.58305433 -0.05598522 0 0 Z " fill="#F9F9F9" transform="translate(139,222.9375)"/>
<path d="M0 0 C1.64935547 0.01353516 1.64935547 0.01353516 3.33203125 0.02734375 C6.01325758 0.05065876 8.69400607 0.0833796 11.375 0.125 C11.375 0.455 11.375 0.785 11.375 1.125 C10.74746826 1.21998779 10.11993652 1.31497559 9.47338867 1.4128418 C-43.53480983 9.54826528 -89.38843718 32.18349926 -122.12207031 75.78564453 C-130.66923844 87.48414877 -137.44303465 100.04841207 -143.625 113.125 C-144.15996094 114.24132812 -144.69492188 115.35765625 -145.24609375 116.5078125 C-149.88160058 126.69388725 -152.92135328 137.28543717 -155.625 148.125 C-155.80724121 148.84042969 -155.98948242 149.55585938 -156.17724609 150.29296875 C-158.78328618 161.01792577 -158.90471972 171.83325032 -158.9375 182.8125 C-158.94126648 183.5077478 -158.94503296 184.20299561 -158.94891357 184.91931152 C-158.98614026 198.48183281 -158.01612771 211.71959529 -153.5 224.625 C-153.19940674 225.50865234 -152.89881348 226.39230469 -152.58911133 227.30273438 C-150.12353236 234.28548661 -147.00205867 240.67740058 -143.32421875 247.09375 C-141.84445918 249.73350501 -140.66697947 252.28996957 -139.625 255.125 C-144.625 259.125 -149.625 263.125 -154.625 267.125 C-156.96162171 264.78837829 -157.09401336 263.73148847 -157.70654297 260.54272461 C-157.89368866 259.59090805 -158.08083435 258.63909149 -158.27365112 257.65843201 C-158.46951813 256.62517288 -158.66538513 255.59191376 -158.8671875 254.52734375 C-159.29804918 252.34177166 -159.72904305 250.15622562 -160.16015625 247.97070312 C-160.83041749 244.52416989 -161.49720913 241.07700405 -162.16064453 237.62915039 C-162.80376998 234.30170645 -163.45992115 230.9770189 -164.1171875 227.65234375 C-164.30900604 226.63325424 -164.50082458 225.61416473 -164.69845581 224.56419373 C-166.19610104 217.0246271 -168.04451037 207.87757585 -174.625 203.125 C-179.84751013 200.25773954 -184.48781261 199.89114654 -190.37573242 199.90966797 C-191.12334682 199.91177214 -191.87096121 199.9138763 -192.64123058 199.91604424 C-200.67958016 200.0219362 -208.49378492 201.09667493 -216.42578125 202.3203125 C-217.99661446 202.55354412 -219.56759778 202.78576661 -221.13871765 203.01705933 C-224.41810352 203.50232515 -227.69617628 203.99538656 -230.97338867 204.49511719 C-235.05297907 205.11719517 -239.13435218 205.72630007 -243.21666145 206.33024979 C-252.87466605 207.75943013 -262.52471838 209.23644183 -272.1709671 210.74281311 C-274.6755713 211.13287589 -277.18072814 211.51923385 -279.68597412 211.90515137 C-283.83214158 212.54545691 -287.97578859 213.2003057 -292.11803246 213.86550522 C-293.66983781 214.1129352 -295.22230076 214.35628211 -296.77544594 214.59515762 C-312.37032572 216.88475375 -312.37032572 216.88475375 -324.625 226.125 C-328.73775242 232.29412864 -327.14364767 240.82398661 -325.79248047 247.84863281 C-324.66582727 253.17729228 -323.36613292 258.46243617 -322.0625 263.75 C-321.60564212 265.65600284 -321.15016885 267.56233806 -320.69604492 269.46899414 C-318.65364465 278.00282847 -316.53955951 286.51790508 -314.3671875 295.01953125 C-314.19947342 295.67850403 -314.03175934 296.33747681 -313.85896301 297.01641846 C-313.0944727 300.01547929 -312.31790064 303.01030596 -311.51928711 306.00048828 C-311.11722046 307.54518799 -311.11722046 307.54518799 -310.70703125 309.12109375 C-310.47218018 309.99950928 -310.2373291 310.8779248 -309.99536133 311.78295898 C-309.59457649 314.31738807 -309.70252104 315.74294598 -310.625 318.125 C-313.0625 320.875 -313.0625 320.875 -315.625 323.125 C-316.285 323.125 -316.945 323.125 -317.625 323.125 C-317.91246094 323.7025 -318.19992187 324.28 -318.49609375 324.875 C-319.20902315 326.29592503 -319.92941488 327.71315251 -320.66015625 329.125 C-320.99917969 329.785 -321.33820313 330.445 -321.6875 331.125 C-322.02910156 331.785 -322.37070312 332.445 -322.72265625 333.125 C-328.43990771 345.79700323 -324.15121456 362.72839924 -319.625 375.125 C-316.7571686 381.60125661 -312.84970214 387.49105787 -306.625 391.125 C-305.66722656 391.37894531 -304.70945312 391.63289063 -303.72265625 391.89453125 C-300.01896287 392.89713799 -297.66354375 393.7372709 -294.625 396.125 C-292.17801719 400.90983582 -291.094514 406.13220713 -289.90625 411.33984375 C-288.55026678 416.95561465 -286.70873976 420.79084716 -281.71484375 423.98828125 C-280.67457031 424.46652344 -279.63429688 424.94476563 -278.5625 425.4375 C-277.51964844 425.92863281 -276.47679687 426.41976563 -275.40234375 426.92578125 C-260.61145937 433.31228126 -240.08349846 428.07648246 -224.6875 426.25 C-222.32888645 425.97690934 -219.97016264 425.70476916 -217.61132812 425.43359375 C-214.16549981 425.03711119 -210.71979471 424.63976554 -207.27456665 424.23809814 C-197.73214078 423.12630965 -188.18207556 422.10203934 -178.625 421.125 C-178.56554199 421.81198975 -178.50608398 422.49897949 -178.44482422 423.20678711 C-174.73388425 464.4337583 -163.59739119 499.95202984 -134.98828125 530.453125 C-133.625 532.125 -133.625 532.125 -133.625 534.125 C-134.5994104 534.27533691 -134.5994104 534.27533691 -135.59350586 534.42871094 C-138.5853609 534.89787551 -141.5737762 535.38630081 -144.5625 535.875 C-145.58408203 536.03226563 -146.60566406 536.18953125 -147.65820312 536.3515625 C-155.54755299 537.66225321 -162.27317237 539.64464755 -168.75 544.4375 C-170.90943567 547.07148633 -170.90943567 547.07148633 -171 550.6875 C-169.51386577 554.40283557 -169.20360675 554.78209634 -165.8125 556.4375 C-156.17032573 560.00190565 -145.79590461 560.50162198 -135.625 561.125 C-138.17594762 563.67594762 -140.67910878 566.17069185 -143.4375 568.5 C-145.86298484 571.02726336 -145.86298484 571.02726336 -146.5 574.5625 C-145.53898552 578.4752018 -145.10241933 579.02041407 -142 581.3125 C-122.82447493 592.66004174 -93.43170259 591.59697198 -72.1796875 587.04296875 C-63.88613737 584.90122778 -55.91057632 582.48810564 -48.13671875 578.859375 C-40.69068457 576.68230746 -32.70099254 578.77769281 -25.25 580.0625 C-11.10033488 582.46896348 2.41665795 583.33313978 16.75 583.3125 C18.09924057 583.31059662 18.09924057 583.31059662 19.47573853 583.30865479 C40.36536881 583.2523165 59.54805493 580.92553239 79.953125 576.46484375 C84.75869242 575.42661248 89.48466353 574.61768315 94.375 574.125 C94.89449219 575.13820313 95.41398437 576.15140625 95.94921875 577.1953125 C96.65326177 578.5470751 97.35771059 579.89862641 98.0625 581.25 C98.40216797 581.91515625 98.74183594 582.5803125 99.09179688 583.265625 C106.21296279 596.8424273 118.32162766 602.44205799 132.31640625 607.21484375 C137.80148408 608.8470572 142.8474305 609.30732799 148.5625 609.3125 C149.28630859 609.32474609 150.01011719 609.33699219 150.75585938 609.34960938 C152.63039471 609.35484064 154.5044635 609.24748796 156.375 609.125 C158.84026886 606.65973114 159.32653693 604.41018427 160.375 601.125 C161.375 600.125 161.375 600.125 164.49511719 600.05908203 C165.88743391 600.07970942 167.27969089 600.10462125 168.671875 600.1328125 C170.20442001 600.15036864 171.73697259 600.16727293 173.26953125 600.18359375 C175.67843941 600.21420929 178.08696101 600.24925567 180.49560547 600.29638672 C199.09789598 600.89479675 199.09789598 600.89479675 215.375 593.125 C217.90172455 589.33491318 217.81841245 587.63302658 217.375 583.125 C215.18592323 575.44759503 209.2403115 571.10909346 203.375 566.125 C201.66422787 564.49388688 200.01891286 562.82370996 198.375 561.125 C202.97701647 559.05395364 207.59047914 557.02069808 212.25 555.08203125 C250.42232455 539.60844391 250.42232455 539.60844391 278.375 511.125 C278.87595023 508.25193772 278.87595023 508.25193772 278.375 505.125 C276.202365 502.55214276 274.39506162 500.63503081 271.375 499.125 C268.57982283 498.91666381 265.7989391 498.75053381 263 498.625 C261.47118406 498.55574156 259.9425238 498.4829375 258.4140625 498.40625 C257.73553223 498.37595703 257.05700195 498.34566406 256.35791016 498.31445312 C254.28438014 498.11634191 252.38039763 497.67859957 250.375 497.125 C250.927811 493.18242485 251.82160964 489.51029038 253.03833008 485.72143555 C256.39312876 475.2104059 258.44331248 464.5456429 260.00146484 453.6328125 C260.31509573 451.5271808 260.70532874 449.43315756 261.11328125 447.34375 C261.53267291 444.05639723 261.63534718 442.19619084 260.375 439.125 C256.68760429 435.61524525 252.65181651 433.06882735 248.33398438 430.40771484 C245.14830976 428.32178084 242.30508535 425.87230163 239.4375 423.375 C238.89867187 422.90803711 238.35984375 422.44107422 237.8046875 421.95996094 C237.28648437 421.51040039 236.76828125 421.06083984 236.234375 420.59765625 C234.54332289 419.13531201 232.83169845 417.69534826 231.078125 416.30859375 C227.23245514 413.26542937 225.32616447 410.98650727 224.375 406.125 C224.375 404.805 224.375 403.485 224.375 402.125 C228.40356062 402.69318797 231.00300147 403.9262519 234.3671875 406.1875 C235.31134521 406.81479004 236.25550293 407.44208008 237.22827148 408.08837891 C238.7240271 409.09650635 238.7240271 409.09650635 240.25 410.125 C242.3412469 411.50962815 244.43369333 412.89244632 246.52734375 414.2734375 C247.53909668 414.94213867 248.55084961 415.61083984 249.59326172 416.29980469 C255.405713 420.11355629 261.32961416 423.69412827 267.375 427.125 C268.27895508 427.63836914 269.18291016 428.15173828 270.11425781 428.68066406 C287.12146749 438.30817852 287.12146749 438.30817852 305.375 445.125 C306.48746094 445.4859375 307.59992187 445.846875 308.74609375 446.21875 C312.67695164 447.20040665 316.35153314 447.45676948 320.375 447.4375 C321.38433594 447.46166992 321.38433594 447.46166992 322.4140625 447.48632812 C328.07772834 447.49179498 332.67856749 446.33776748 337.1171875 442.6953125 C343.41472144 434.66052782 342.218244 422.8788312 341.375 413.125 C340.42237826 407.54918208 338.48435183 402.35298179 336.375 397.125 C336.11799316 396.4654834 335.86098633 395.8059668 335.59619141 395.12646484 C328.83706863 377.95273301 318.92302194 363.42911309 307.375 349.125 C306.65763672 348.22974609 306.65763672 348.22974609 305.92578125 347.31640625 C298.40112648 338.02124447 290.00478046 329.57646684 281.5625 321.125 C281.02057007 320.58198242 280.47864014 320.03896484 279.92028809 319.47949219 C273.91914544 313.47971231 267.86213307 307.60382159 261.375 302.125 C260.25737226 301.16327178 259.14017226 300.20104623 258.0234375 299.23828125 C256.93261906 298.30430499 255.84146595 297.37071948 254.75 296.4375 C254.15735352 295.92985107 253.56470703 295.42220215 252.95410156 294.89916992 C249.87590879 292.26274731 246.79488066 289.62969336 243.7109375 287 C226.90930142 272.65930142 226.90930142 272.65930142 221.375 267.125 C221.71666046 263.00123769 223.38160961 259.1120243 224.74951172 255.23291016 C228.68487191 244.02911792 231.48910839 232.8464267 233.375 221.125 C233.63869385 219.52785156 233.63869385 219.52785156 233.90771484 217.8984375 C234.42583712 213.71447833 234.55412826 209.64012621 234.578125 205.4296875 C234.58518463 204.60839859 234.59224426 203.78710968 234.59951782 202.94093323 C234.89214338 177.8728261 234.89214338 177.8728261 231.375 153.125 C231.17632324 152.22152832 230.97764648 151.31805664 230.77294922 150.38720703 C224.41500477 122.26461379 213.34204828 94.88720779 195.375 72.125 C194.60285156 71.14402344 193.83070313 70.16304688 193.03515625 69.15234375 C190.85354742 66.44118201 188.63118703 63.7742795 186.375 61.125 C185.69566406 60.32191406 185.01632812 59.51882812 184.31640625 58.69140625 C180.00220403 53.70442395 175.48104339 49.29200092 170.375 45.125 C169.87726074 44.71491699 169.37952148 44.30483398 168.86669922 43.88232422 C138.21251402 18.73737479 101.46689146 5.71602446 62.375 1.125 C62.375 0.795 62.375 0.465 62.375 0.125 C66.70831896 0.0957573 71.04161221 0.07811983 75.375 0.0625 C76.59574219 0.05412109 77.81648438 0.04574219 79.07421875 0.03710938 C87.6720009 0.01387213 95.29538025 0.08094985 103.34765625 3.32226562 C105.38890447 4.13050553 107.43905486 4.8200933 109.53125 5.484375 C128.02222044 11.38633386 147.10945472 18.74834909 162.1875 31.32421875 C163.41129865 32.33166728 164.65423009 33.31987394 165.95410156 34.22705078 C172.41485767 38.79065417 177.88702886 44.33408389 183.43994141 49.92919922 C185.12833469 51.62835594 186.82721269 53.31650292 188.52734375 55.00390625 C189.61782965 56.09571317 190.70769529 57.18814003 191.796875 58.28125 C192.29797791 58.77830444 192.79908081 59.27535889 193.31536865 59.78747559 C196.47653421 62.99065044 198.97636454 66.32421856 201.375 70.125 C202.49570039 71.71137955 203.62055351 73.29483543 204.75 74.875 C207.66229662 79.02300456 210.34062913 83.25300704 212.90234375 87.625 C213.89225913 89.30549294 214.90584961 90.97224127 215.94140625 92.625 C219.46429683 98.27575181 222.04955936 103.89754878 224.375 110.125 C224.99849894 111.62562456 225.62354186 113.12560839 226.25 114.625 C232.47026268 130.24912436 238.39320323 146.96389065 239.19921875 163.8671875 C239.23513052 166.15896032 239.23513052 166.15896032 240.375 168.125 C240.47042133 169.77906141 240.50295125 171.43693912 240.50439453 173.09375 C240.50912277 174.64545898 240.50912277 174.64545898 240.51394653 176.22851562 C240.5119223 177.34935547 240.50989807 178.47019531 240.5078125 179.625 C240.50876923 180.77162109 240.50972595 181.91824219 240.51071167 183.09960938 C240.51139311 185.52734431 240.50954135 187.95508105 240.50537109 190.3828125 C240.50002237 194.10941643 240.50531735 197.83589984 240.51171875 201.5625 C240.51105796 203.91666693 240.50977679 206.27083379 240.5078125 208.625 C240.50983673 209.74583984 240.51186096 210.86667969 240.51394653 212.02148438 C240.51079437 213.05595703 240.50764221 214.09042969 240.50439453 215.15625 C240.50320114 216.52620117 240.50320114 216.52620117 240.50198364 217.92382812 C240.375 220.125 240.375 220.125 239.375 222.125 C239.24245711 223.49755531 239.14415797 224.87347987 239.0625 226.25 C238.06926949 237.12823892 235.24248064 250.41890052 230.328125 260.2109375 C228.84061022 263.1981598 228.7163773 264.83188652 229.375 268.125 C231.15163825 269.81878984 233.04838325 271.11640572 235.0859375 272.484375 C237.50348871 274.21709088 239.44298621 276.10562269 241.5 278.25 C243.75223365 280.57234209 245.66352753 282.31735169 248.375 284.125 C251.82460482 286.42473655 254.42383752 289.11042668 257.25 292.125 C259.31719285 294.20958114 259.31719285 294.20958114 261.89648438 295.65527344 C266.90307918 298.95474744 270.9456499 303.41088841 275.15625 307.640625 C276.08796021 308.57042175 277.01967041 309.50021851 277.97961426 310.45819092 C279.94621848 312.4218575 281.90918916 314.38906633 283.86962891 316.35888672 C286.36410911 318.86472898 288.86742013 321.36152488 291.3735733 323.85568619 C293.78520047 326.25828069 296.18910533 328.66854191 298.59375 331.078125 C299.48453247 331.96485901 300.37531494 332.85159302 301.29309082 333.76519775 C305.60113479 338.10553297 309.59887211 342.43475637 313.13781738 347.42913818 C314.37374837 349.12328433 315.70320836 350.64787775 317.125 352.1875 C324.63527355 360.8908118 330.46174917 370.93613464 335.8125 381.0625 C336.4317334 382.23280762 336.4317334 382.23280762 337.06347656 383.42675781 C341.64164503 392.28443636 343.8453397 399.24672441 343.87890625 409.23046875 C343.88889145 410.27270096 343.89887665 411.31493317 343.90916443 412.38874817 C343.9242804 414.57968193 343.93139226 416.77068407 343.9309082 418.96166992 C343.93750193 422.3134813 343.99214301 425.66237938 344.04882812 429.01367188 C344.05762532 431.14842741 344.06358279 433.28319695 344.06640625 435.41796875 C344.0879628 436.41700729 344.10951935 437.41604584 344.13172913 438.44535828 C344.06524862 445.17845911 344.06524862 445.17845911 342.13327026 447.82778931 C340.58178711 449.16918945 340.58178711 449.16918945 337.375 451.125 C336.70033691 451.55192139 336.02567383 451.97884277 335.33056641 452.41870117 C331.03146049 453.97142445 326.26451264 453.45114726 321.75 453.4375 C320.18572266 453.46166992 320.18572266 453.46166992 318.58984375 453.48632812 C308.63532251 453.49254193 300.43200348 450.84659854 291.4375 446.8125 C290.74785156 446.50691162 290.05820312 446.20132324 289.34765625 445.88647461 C284.54136562 443.72599765 279.91307585 441.33918451 275.32421875 438.74609375 C269.11638736 435.33384206 262.72430599 432.26380372 256.375 429.125 C257.33212891 430.06472656 257.33212891 430.06472656 258.30859375 431.0234375 C259.54802734 432.24933594 259.54802734 432.24933594 260.8125 433.5 C261.63621094 434.31210937 262.45992187 435.12421875 263.30859375 435.9609375 C266.06669211 438.84938078 266.50183128 440.31166686 266.5078125 444.1875 C266.50910156 444.98414063 266.51039063 445.78078125 266.51171875 446.6015625 C266.50785156 447.43429687 266.50398437 448.26703125 266.5 449.125 C266.50386719 449.95773437 266.50773438 450.79046875 266.51171875 451.6484375 C266.51042969 452.44507813 266.50914062 453.24171875 266.5078125 454.0625 C266.50612061 455.15884766 266.50612061 455.15884766 266.50439453 456.27734375 C266.375 458.125 266.375 458.125 265.375 460.125 C265.26799301 461.45664249 265.18986469 462.79064068 265.125 464.125 C264.52148117 470.99505602 262.45414005 477.45882929 260.53125 484.05078125 C259.65711677 487.05595782 258.91707302 490.03887975 258.375 493.125 C259.06464844 493.07859375 259.75429688 493.0321875 260.46484375 492.984375 C268.2911872 492.6837747 274.0133327 493.72758559 280.265625 498.59765625 C283.43749616 501.73247284 284.82316202 504.47435975 285.1875 508.9375 C284.70067946 516.21767985 280.37313049 521.45375257 275.08203125 526.16796875 C272.88869786 527.89103971 270.64857845 529.51019693 268.375 531.125 C267.59253906 531.76179687 266.81007813 532.39859375 266.00390625 533.0546875 C263.09175754 535.3480587 260.05909168 537.38397351 256.9375 539.375 C256.32841797 539.76413574 255.71933594 540.15327148 255.09179688 540.55419922 C241.81375186 548.96385517 227.9799332 556.7953069 213.265625 562.3984375 C211.32905848 563.10772083 211.32905848 563.10772083 209.375 564.125 C210.20644531 564.8984375 211.03789063 565.671875 211.89453125 566.46875 C218.76018915 572.9921748 223.26776989 577.48161931 224.875 587.125 C224.00914705 592.32011767 221.55911226 596.40798502 217.40234375 599.67578125 C215.42864186 600.92640731 213.45352778 602.05887641 211.375 603.125 C210.71628906 603.475625 210.05757812 603.82625 209.37890625 604.1875 C202.30715708 607.49592066 194.52461574 607.30570879 186.875 607.3125 C185.9778125 607.31330566 185.080625 607.31411133 184.15625 607.31494141 C177.64318777 607.25909388 177.64318777 607.25909388 175.375 606.125 C173.07435681 605.77495311 173.07435681 605.77495311 170.5 605.6875 C169.63632812 605.62691406 168.77265625 605.56632813 167.8828125 605.50390625 C167.05523437 605.70886719 166.22765625 605.91382813 165.375 606.125 C164.81748047 607.11282471 164.25996094 608.10064941 163.68554688 609.1184082 C161.375 612.125 161.375 612.125 157.95849609 612.86962891 C156.60537976 612.89563703 155.25132416 612.88758931 153.8984375 612.8515625 C153.1731485 612.85255951 152.4478595 612.85355652 151.70059204 612.85458374 C150.16568043 612.84990947 148.63075256 612.83049256 147.09619141 612.79736328 C144.7775308 612.75055577 142.46353827 612.75618942 140.14453125 612.76953125 C131.89253893 612.7376136 124.7807095 612.0863593 117.375 608.125 C116.57102783 607.71660889 115.76705566 607.30821777 114.9387207 606.88745117 C112.68972308 605.71867483 110.53689398 604.44724732 108.375 603.125 C107.69566406 602.74214844 107.01632812 602.35929688 106.31640625 601.96484375 C99.38597702 597.54720173 95.77441363 590.40299993 92.375 583.125 C92.375 582.135 92.375 581.145 92.375 580.125 C90.951875 580.8365625 90.951875 580.8365625 89.5 581.5625 C85.6593563 583.21955192 82.09042966 583.56815689 77.94921875 583.87890625 C71.1861278 584.3096785 71.1861278 584.3096785 65.375 587.125 C62.72515201 587.33628356 60.09160103 587.50112666 57.4375 587.625 C52.24797382 587.66791236 52.24797382 587.66791236 47.375 589.125 C45.53716054 589.22108064 43.69581744 589.25295892 41.85546875 589.25439453 C40.70087158 589.25754669 39.54627441 589.26069885 38.35668945 589.26394653 C37.10460693 589.2619223 35.85252441 589.25989807 34.5625 589.2578125 C32.64280396 589.25924759 32.64280396 589.25924759 30.68432617 589.26071167 C27.97410884 589.26218689 25.26392445 589.26003973 22.55371094 589.25537109 C19.07658771 589.24967389 15.59954166 589.25295384 12.12242126 589.25894356 C8.81077462 589.2634221 5.49914884 589.26028816 2.1875 589.2578125 C0.93541748 589.25983673 -0.31666504 589.26186096 -1.60668945 589.26394653 C-2.76128662 589.26079437 -3.91588379 589.25764221 -5.10546875 589.25439453 C-6.12535889 589.25359894 -7.14524902 589.25280334 -8.19604492 589.25198364 C-10.625 589.125 -10.625 589.125 -12.625 588.125 C-14.62151809 587.92081065 -16.62259821 587.75977704 -18.625 587.625 C-24.40277778 587.23611111 -24.40277778 587.23611111 -26.625 586.125 C-28.57967605 585.9198445 -30.53917681 585.75923728 -32.5 585.625 C-38.29705158 585.22618564 -38.29705158 585.22618564 -40.5715332 584.52441406 C-43.05976625 584.04043484 -44.12372335 584.4444659 -46.42578125 585.453125 C-47.51064819 585.90921143 -47.51064819 585.90921143 -48.61743164 586.37451172 C-49.3830542 586.70467285 -50.14867676 587.03483398 -50.9375 587.375 C-58.20431512 590.37842905 -65.13443661 592.32234496 -72.87890625 593.6171875 C-75.52765554 593.83874264 -75.52765554 593.83874264 -76.625 595.125 C-79.6859591 595.26396896 -82.72251299 595.33834052 -85.78515625 595.36328125 C-86.7224205 595.371353 -87.65968475 595.37942474 -88.62535095 595.38774109 C-90.6236688 595.4016165 -92.6220107 595.41232307 -94.62036133 595.42016602 C-97.62304974 595.43713576 -100.62456505 595.48095677 -103.62695312 595.52539062 C-118.88241648 595.64863025 -134.88964161 595.18507342 -146.65234375 584.23828125 C-149.57981728 581.19486818 -151.42751029 579.1321975 -152.25 574.9375 C-151.55986965 571.83191342 -150.45296008 569.71461011 -148.625 567.125 C-150.96389353 565.95555323 -152.58257725 565.95517965 -155.1875 565.8125 C-162.29287053 565.12554498 -168.13351461 563.05918173 -173.1875 557.875 C-175.58110572 554.72162618 -176.60842796 552.14747393 -176.26171875 548.171875 C-174.41112917 542.2227404 -169.44211783 538.28211481 -164.1875 535.3125 C-157.39504755 532.19534353 -149.95758473 531.24399246 -142.625 530.125 C-143.15609375 529.61710938 -143.6871875 529.10921875 -144.234375 528.5859375 C-148.26443202 524.65883814 -151.6469594 520.9282913 -154.625 516.125 C-155.10066406 515.50109375 -155.57632813 514.8771875 -156.06640625 514.234375 C-169.00390034 497.06442924 -176.63456506 476.24838433 -180.08203125 455.1875 C-180.45823452 452.22169507 -180.45823452 452.22169507 -181.625 450.125 C-181.94148391 446.7843365 -182.13628525 443.44282389 -182.34375 440.09375 C-182.43788062 437.1985199 -182.43788062 437.1985199 -183.625 435.125 C-183.75915472 432.4526379 -183.66818541 429.80249512 -183.625 427.125 C-184.30175781 427.44339844 -184.97851562 427.76179688 -185.67578125 428.08984375 C-189.13268137 429.3031928 -192.15802307 429.50650905 -195.8125 429.6875 C-200.38227209 429.76657434 -200.38227209 429.76657434 -204.625 431.125 C-205.97532798 431.26345858 -207.33125639 431.35003885 -208.6875 431.40625 C-209.48414063 431.44363281 -210.28078125 431.48101562 -211.1015625 431.51953125 C-212.78385417 431.58984375 -214.46614583 431.66015625 -216.1484375 431.73046875 C-216.94507813 431.76785156 -217.74171875 431.80523437 -218.5625 431.84375 C-219.29339844 431.87404297 -220.02429688 431.90433594 -220.77734375 431.93554688 C-222.7188577 432.02457573 -222.7188577 432.02457573 -224.625 433.125 C-227.70505912 433.44000605 -230.78599912 433.63583648 -233.875 433.84375 C-236.58365993 433.95687492 -236.58365993 433.95687492 -238.625 435.125 C-243.2378828 435.48167553 -247.85378111 435.56750587 -252.47827148 435.63989258 C-254.01157692 435.67116489 -255.54465486 435.71852284 -257.0769043 435.78344727 C-269.03861686 436.28244911 -277.83378196 434.25708804 -287.625 427.125 C-291.81137986 422.38627782 -294.83344001 417.36007127 -296.34375 411.1875 C-297.90557597 404.82001332 -297.90557597 404.82001332 -302.23046875 400.1171875 C-304.30778587 398.98506284 -306.40373673 397.88655853 -308.515625 396.8203125 C-316.89086742 392.25391148 -322.31168596 384.94035013 -325.625 376.125 C-325.88321533 375.47128418 -326.14143066 374.81756836 -326.4074707 374.14404297 C-328.94762133 366.93577215 -329.11741506 359.81425407 -329.07104492 352.24804688 C-329.06251177 350.12792403 -329.09142547 348.01048501 -329.12304688 345.890625 C-329.17043087 337.06319245 -328.83326067 328.57131921 -322.484375 321.86328125 C-321.44023437 321.15751953 -321.44023437 321.15751953 -320.375 320.4375 C-318.17619948 319.08428997 -318.17619948 319.08428997 -316.625 317.125 C-316.00470727 311.77089431 -317.25682926 307.13660899 -318.8125 302.0625 C-321.64498375 292.3893586 -323.86771049 282.61113771 -326.01831055 272.76708984 C-326.50926264 270.62902805 -327.07568734 268.508388 -327.66479492 266.39526367 C-328.79674424 261.87380766 -329.01699552 257.48609873 -329.1015625 252.83984375 C-329.11770599 251.97992325 -329.13384949 251.12000275 -329.15048218 250.23402405 C-329.17796486 248.42814981 -329.19949689 246.62217604 -329.21533203 244.81616211 C-329.23847048 242.97828496 -329.27953251 241.14054733 -329.33837891 239.3034668 C-329.82509146 224.07262669 -329.82509146 224.07262669 -326.94042969 219.39111328 C-324.89566175 217.55746407 -323.08977919 216.31819398 -320.625 215.125 C-319.95291504 214.76784912 -319.28083008 214.41069824 -318.58837891 214.04272461 C-312.94507152 211.404924 -306.85868828 210.83622403 -300.7265625 210.37109375 C-298.57027426 210.23936697 -298.57027426 210.23936697 -296.625 209.125 C-294.06622107 208.81379716 -291.50648388 208.61535334 -288.9375 208.40625 C-286.60231545 208.25363953 -286.60231545 208.25363953 -284.625 207.125 C-281.77292222 206.81244353 -278.92003146 206.61462518 -276.05859375 206.40625 C-273.67956695 206.38665078 -273.67956695 206.38665078 -272.625 205.125 C-270.64990127 204.9155639 -268.66928318 204.75696178 -266.6875 204.625 C-262.50332585 204.44764916 -262.50332585 204.44764916 -258.625 203.125 C-255.80556784 202.81172976 -252.98521918 202.61470036 -250.15625 202.40625 C-247.63425996 202.27367388 -247.63425996 202.27367388 -245.625 201.125 C-242.2843365 200.80851609 -238.94282389 200.61371475 -235.59375 200.40625 C-232.6985199 200.31211938 -232.6985199 200.31211938 -230.625 199.125 C-228.06622107 198.81379716 -225.50648388 198.61535334 -222.9375 198.40625 C-220.60231545 198.25363953 -220.60231545 198.25363953 -218.625 197.125 C-215.54494088 196.80999395 -212.46400088 196.61416352 -209.375 196.40625 C-206.66634007 196.29312508 -206.66634007 196.29312508 -204.625 195.125 C-200.42340253 194.79913489 -196.2126579 194.80031405 -192 194.75 C-190.83597656 194.71261719 -189.67195312 194.67523438 -188.47265625 194.63671875 C-178.78314069 194.53795812 -173.93507472 196.7852943 -167.125 203.4375 C-166.3 204.324375 -165.475 205.21125 -164.625 206.125 C-164.59809896 203.33326945 -164.57820947 200.54179652 -164.5625 197.75 C-164.55412109 196.9559375 -164.54574219 196.161875 -164.53710938 195.34375 C-164.39459849 191.10107778 -164.39459849 191.10107778 -165.625 187.125 C-165.85576923 181.58653846 -165.85576923 181.58653846 -164.625 179.125 C-164.49665567 177.64913046 -164.42288561 176.1682866 -164.37890625 174.6875 C-164.32959961 173.34365234 -164.32959961 173.34365234 -164.27929688 171.97265625 C-164.21910927 170.10555986 -164.16171858 168.23837074 -164.10742188 166.37109375 C-163.48992401 149.98992401 -163.48992401 149.98992401 -160.625 147.125 C-160.29195133 145.79077567 -160.00100011 144.4459473 -159.73046875 143.09765625 C-158.74023652 138.47687673 -157.44293658 134.03927202 -155.9375 129.5625 C-155.54884766 128.40512329 -155.54884766 128.40512329 -155.15234375 127.22436523 C-149.97191347 112.14098742 -142.88879655 98.2897045 -134.5 84.75 C-134.08000732 84.07130859 -133.66001465 83.39261719 -133.22729492 82.69335938 C-130.8914164 78.97368406 -128.43928756 75.5078305 -125.625 72.125 C-124.99980469 71.33480469 -124.37460938 70.54460937 -123.73046875 69.73046875 C-114.74269899 58.39965514 -105.3232002 46.84415958 -93.4296875 38.4375 C-91.66868131 37.15676823 -90.10497213 35.78172822 -88.5 34.3125 C-72.42250167 20.54192748 -49.22063157 8.35635631 -28.625 3.5 C-27.7175 3.28085937 -26.81 3.06171875 -25.875 2.8359375 C-24.8025 2.60132813 -23.73 2.36671875 -22.625 2.125 C-21.55693115 1.86468994 -21.55693115 1.86468994 -20.46728516 1.59912109 C-13.59657775 0.03652908 -7.02513795 -0.11096816 0 0 Z M-157.625 232.125 C-156.625 234.125 -156.625 234.125 -156.625 234.125 Z M-156.625 234.125 C-155.625 236.125 -155.625 236.125 -155.625 236.125 Z M-155.625 236.125 C-155.645625 237.40375 -155.66625 238.6825 -155.6875 240 C-155.69910156 240.71929687 -155.71070313 241.43859375 -155.72265625 242.1796875 C-155.75149242 244.20685404 -155.75149242 244.20685404 -154.625 246.125 C-154.39141202 248.68581642 -154.24336931 251.24505034 -154.1015625 253.8125 C-153.83113439 256.49527404 -153.83113439 256.49527404 -150.625 258.125 C-149.635 257.465 -148.645 256.805 -147.625 256.125 C-146.64299149 250.96945533 -148.60212972 248.18418568 -151.37890625 244.09375 C-152.97537222 241.57143386 -153.83650577 238.99225174 -154.625 236.125 C-154.955 236.125 -155.285 236.125 -155.625 236.125 Z M250.375 424.125 C250.705 425.115 251.035 426.105 251.375 427.125 C253.39008358 427.85823796 253.39008358 427.85823796 255.375 428.125 C254.06299596 426.77067325 252.72868596 425.43766518 251.375 424.125 C251.045 424.125 250.715 424.125 250.375 424.125 Z " fill="#F8F8F8" transform="translate(328.625,-0.125)"/>
<path d="M0 0 C6.47527339 3.4772341 9.25262958 9.38860084 11.359375 16.21875 C13.1957183 25.77144493 11.56471636 35.46826188 6.12109375 43.54296875 C2.29338002 48.21391645 -2.43228449 51.44386901 -8.3984375 52.671875 C-11.79789265 52.87337234 -14.28369688 52.21736087 -17.37890625 50.85546875 C-23.66274904 45.11804708 -26.86576175 38.44178585 -27.4921875 30.03125 C-27.7337793 18.67643548 -25.67086365 11.29291241 -18.03515625 2.82421875 C-12.91049717 -1.76100253 -6.40814646 -2.18787669 0 0 Z " fill="#090A08" transform="translate(429.25390625,148.76953125)"/>
<path d="M0 0 C9.60649386 5.57796418 21.02656697 17.63347477 24.53125 28.48046875 C24.63953125 29.26357422 24.63953125 29.26357422 24.75 30.0625 C13.83030778 33.43448475 0.60658735 30.64782634 -10.4375 28.875 C-11.149133 28.76467438 -11.86076599 28.65434875 -12.59396362 28.54067993 C-24.32970746 26.71891068 -35.82209277 24.32563268 -47.25 21.0625 C-44.50908127 11.80354282 -33.32801263 5.32152937 -25.25 0.875 C-16.73275035 -3.05239845 -8.70431818 -3.82828809 0 0 Z " fill="#F7F7F7" transform="translate(338.25,177.9375)"/>
<path d="M0 0 C4.82383526 2.82148855 7.24961518 6.17005741 9.30859375 11.34765625 C11.48058707 19.67976621 10.77310429 29.22872906 7 37 C3.93501098 41.5028851 0.56896896 45.91337191 -5 47 C-10.02237512 47.55804168 -11.95809068 47.62907733 -16.3125 45 C-21.7506723 39.62109934 -22.31362563 33.44376937 -22.4375 26.125 C-22.39052856 17.28415867 -20.40546434 9.40546434 -14 3 C-9.74073858 -0.52910232 -5.32260614 -0.96860147 0 0 Z " fill="#080908" transform="translate(259,138)"/>
<path d="M0 0 C3.61460464 -0.25316297 5.39943763 0.26800394 8.48046875 2.20703125 C12.49526131 5.73146747 13.23952257 10.11585089 14.3203125 15.171875 C14.53171875 16.04457031 14.743125 16.91726563 14.9609375 17.81640625 C16.09072941 22.69505312 16.87576879 27.26184079 16.4453125 32.296875 C13.83451366 35.39719862 11.95632123 36.18538219 8.0078125 37.046875 C6.48889894 37.15992391 4.96728087 37.23779238 3.4453125 37.296875 C2.30578125 37.36003906 1.16625 37.42320312 -0.0078125 37.48828125 C-9.56488263 37.79818624 -9.56488263 37.79818624 -13.26953125 35.921875 C-16.64388525 32.04569399 -17.62661775 27.88945362 -18.9296875 22.984375 C-19.20167969 22.05947266 -19.47367187 21.13457031 -19.75390625 20.18164062 C-21.21199304 14.92131212 -22.07666279 10.6936039 -20.5546875 5.296875 C-19.44140625 3.43359375 -19.44140625 3.43359375 -17.5546875 2.296875 C-11.77693414 1.01521441 -5.87042861 0.68219048 0 0 Z " fill="#0B0C0A" transform="translate(116.5546875,250.703125)"/>
<path d="M0 0 C3.0691541 -0.12276616 5.57139082 0.13317194 8.48828125 1.10546875 C11.83580205 4.26170265 12.46440962 7.81945519 13.67578125 12.16796875 C14.04058594 13.2353125 14.40539062 14.30265625 14.78125 15.40234375 C18.52566143 26.49500287 18.52566143 26.49500287 16.67578125 32.16796875 C14.7804425 34.7525216 13.78751608 35.13072381 10.67578125 36.16796875 C7.22847898 36.59128793 3.76687473 36.77203475 0.30078125 36.98046875 C-1.11847656 37.09551758 -1.11847656 37.09551758 -2.56640625 37.21289062 C-6.76059069 37.45735503 -9.52999683 37.55789682 -13.34765625 35.68359375 C-15.98747599 32.32382317 -16.74028473 29.24163258 -17.57421875 25.10546875 C-17.89138053 23.67696188 -18.20906871 22.24857175 -18.52734375 20.8203125 C-18.7903125 19.61503906 -19.05328125 18.40976562 -19.32421875 17.16796875 C-19.65421875 16.17796875 -19.98421875 15.18796875 -20.32421875 14.16796875 C-20.89790817 6.9394821 -20.89790817 6.9394821 -18.51171875 3.73046875 C-13.20840002 -0.05761605 -6.2826438 0.4540398 0 0 Z " fill="#0B0D0B" transform="translate(66.32421875,255.83203125)"/>
<path d="M0 0 C4.36079277 4.4599017 4.6660747 9.82578674 5.75 15.8125 C6.13114172 17.27474182 6.5242516 18.73400562 6.9375 20.1875 C8.04288369 25.11921187 8.83678708 28.91838537 6.24609375 33.43359375 C2.91952377 36.60398674 -0.16746122 36.84562144 -4.5625 37.1875 C-5.29662109 37.26871094 -6.03074219 37.34992188 -6.78710938 37.43359375 C-11.4101501 37.88482221 -15.71859687 38.01572276 -20.25 36.8125 C-24.88308095 32.88187937 -25.51414929 27.64286683 -26.5625 21.9375 C-26.74361328 21.06480469 -26.92472656 20.19210937 -27.11132812 19.29296875 C-28.09567525 14.19887663 -28.47528957 9.94672967 -27.25 4.8125 C-23.64479099 0.21275058 -18.6766764 -0.127225 -13.1875 -0.8671875 C-8.26657025 -1.40377824 -4.70335031 -1.71853184 0 0 Z " fill="#0A0B09" transform="translate(136.25,304.1875)"/>
<path d="M0 0 C0.66 0.33 1.32 0.66 2 1 C-2.40941529 9.43841043 -7.86436199 17.00031253 -16.8125 21 C-22.75979071 22.80436764 -29.61119861 23.36636472 -35.44140625 21.015625 C-38.95800875 18.91732075 -41.98798923 16.64676953 -44 13 C-44 12.34 -44 11.68 -44 11 C-43.030625 10.97421875 -42.06125 10.9484375 -41.0625 10.921875 C-27.07038777 10.394968 -14.61462569 8.02703053 -2.2578125 1.07421875 C-1.51273437 0.71972656 -0.76765625 0.36523438 0 0 Z " fill="#F6F6F6" transform="translate(359,222)"/>
<path d="M0 0 C2.625 2.875 2.625 2.875 3.25 6.375 C2.53174419 10.39723256 1.53391909 12.04688421 -1.375 14.875 C-5.84344517 17.58458909 -10.28919623 17.54080712 -15.375 16.875 C-19.23044798 14.87842873 -20.97305092 13.47792362 -23.375 9.875 C-23.30106399 5.80851935 -23.05170746 3.6337326 -20.3125 0.5625 C-13.3503471 -3.43703464 -7.02630867 -4.42397212 0 0 Z " fill="#0A0B0A" transform="translate(119.375,372.125)"/>
<path d="M0 0 C0 0.99 0 1.98 0 3 C-0.886875 3.391875 -1.77375 3.78375 -2.6875 4.1875 C-7.2539611 6.68612966 -10.12814414 9.69221622 -13 14 C-13.51842983 20.99440925 -13.3136432 28.10337319 -12 35 C-12.66 35 -13.32 35 -14 35 C-14.33 35.66 -14.66 36.32 -15 37 C-15.19906641 32.85597333 -15.3435041 28.71453512 -15.43945312 24.56713867 C-15.47947543 23.15941869 -15.53391768 21.75202695 -15.60351562 20.34545898 C-16.1666381 8.66480823 -16.1666381 8.66480823 -13.25390625 4.50830078 C-8.75813983 0.53182384 -5.93163412 -1.40486071 0 0 Z " fill="#F6F6F6" transform="translate(15,215)"/>
<path d="M0 0 C3.36335594 1.45745424 5.54534005 3.31117854 8.109375 5.9140625 C8.86347656 6.67460938 9.61757813 7.43515625 10.39453125 8.21875 C11.17183594 9.0128125 11.94914063 9.806875 12.75 10.625 C13.54277344 11.42679688 14.33554687 12.22859375 15.15234375 13.0546875 C17.10614493 15.03202846 19.05512103 17.01388909 21 19 C20.67 19.66 20.34 20.32 20 21 C19.01 20.01 18.02 19.02 17 18 C16.67 18.66 16.34 19.32 16 20 C12.66353464 18.5836449 10.84455707 16.91828002 8.5625 14.125 C6.45246775 11.59659929 4.75797604 9.82491884 2.0625 7.875 C0 6 0 6 -0.3125 2.75 C-0.209375 1.8425 -0.10625 0.935 0 0 Z " fill="#F3F3F0" transform="translate(502,42)"/>
<path d="M0 0 C2.19921875 -0.28125 2.19921875 -0.28125 5 0 C7.45703125 1.96875 7.45703125 1.96875 9.8125 4.5 C10.60269531 5.3353125 11.39289062 6.170625 12.20703125 7.03125 C12.79871094 7.6809375 13.39039063 8.330625 14 9 C13.67 9.66 13.34 10.32 13 11 C9.47400278 11 9.02707839 10.46519566 6.5 8.1875 C5.61828125 7.40439453 5.61828125 7.40439453 4.71875 6.60546875 C3.86796875 5.81076172 3.86796875 5.81076172 3 5 C2.4328125 4.48050781 1.865625 3.96101563 1.28125 3.42578125 C0 2 0 2 0 0 Z " fill="#F0F0EF" transform="translate(606,315)"/>
<path d="M0 0 C4.39092112 -0.54886514 6.28500878 -0.47666082 10 2 C11.65549531 2.38499891 13.3222433 2.72793135 15 3 C15 3.66 15 4.32 15 5 C9.06 5 3.12 5 -3 5 C-2.01 3.35 -1.02 1.7 0 0 Z " fill="#FEFEFE" transform="translate(109,426)"/>
<path d="M0 0 C0.66 0.33 1.32 0.66 2 1 C0.35 3.64 -1.3 6.28 -3 9 C-8.28 8.67 -13.56 8.34 -19 8 C-19 7.67 -19 7.34 -19 7 C-18.26394531 6.97421875 -17.52789062 6.9484375 -16.76953125 6.921875 C-9.09277615 6.47698856 -9.09277615 6.47698856 -3 2 C-2.01 1.34 -1.02 0.68 0 0 Z " fill="#F1F1F1" transform="translate(493,603)"/>
<path d="M0 0 C0.99 0.33 1.98 0.66 3 1 C3 6.94 3 12.88 3 19 C2.01 19.33 1.02 19.66 0 20 C0 13.4 0 6.8 0 0 Z " fill="#FCFDFD" transform="translate(0,337)"/>
<path d="M0 0 C0.33 0.99 0.66 1.98 1 3 C-2.92155886 5.61437258 -6.44236768 5.21703011 -11 5 C-14 4 -14 4 -16 3 C-13.33925572 0.33925572 -11.70637611 0.61555806 -8 0.375 C-6.9275 0.30023438 -5.855 0.22546875 -4.75 0.1484375 C-3.1681964 0.06305606 -1.58410626 0 0 0 Z " fill="#FDFDFD" transform="translate(124,196)"/>
<path d="M0 0 C6.6 0 13.2 0 20 0 C20 0.66 20 1.32 20 2 C21.175625 1.9071875 21.175625 1.9071875 22.375 1.8125 C23.674375 1.9053125 23.674375 1.9053125 25 2 C25.99 3.485 25.99 3.485 27 5 C13.635 3.02 13.635 3.02 0 1 C0 0.67 0 0.34 0 0 Z " fill="#E4E4E3" transform="translate(391,0)"/>
<path d="M0 0 C0 0.99 0 1.98 0 3 C-7.9223301 4.39805825 -7.9223301 4.39805825 -12 3 C-12.66 2.01 -13.32 1.02 -14 0 C-12.41773035 -0.19627391 -10.83410729 -0.38165538 -9.25 -0.5625 C-8.36828125 -0.66691406 -7.4865625 -0.77132813 -6.578125 -0.87890625 C-4.11567549 -0.99456676 -2.33461936 -0.73638695 0 0 Z " fill="#EEEEF0" transform="translate(126,425)"/>
<path d="M0 0 C0.66 3.63 1.32 7.26 2 11 C1.01 11.33 0.02 11.66 -1 12 C-3.70582788 8.16674383 -4.32613618 5.67461851 -4 1 C-2 0 -2 0 0 0 Z " fill="#EEEEEE" transform="translate(4,356)"/>
<path d="M0 0 C0.84755859 0.00322266 1.69511719 0.00644531 2.56835938 0.00976562 C3.8899707 0.02233398 3.8899707 0.02233398 5.23828125 0.03515625 C6.57729492 0.04192383 6.57729492 0.04192383 7.94335938 0.04882812 C10.14590112 0.06060642 12.34830724 0.07705461 14.55078125 0.09765625 C14.55078125 0.42765625 14.55078125 0.75765625 14.55078125 1.09765625 C4.65078125 2.58265625 4.65078125 2.58265625 -5.44921875 4.09765625 C-5.44921875 3.43765625 -5.44921875 2.77765625 -5.44921875 2.09765625 C-6.10921875 1.76765625 -6.76921875 1.43765625 -7.44921875 1.09765625 C-4.6251011 0.1562837 -2.92003843 -0.01959757 0 0 Z " fill="#EAEAE9" transform="translate(325.44921875,-0.09765625)"/>
<path d="M0 0 C-1.5 2 -1.5 2 -4 4 C-6.75871627 4.35800135 -9.20097524 4.18660165 -12 4 C-12 3.34 -12 2.68 -12 2 C-12.66 1.34 -13.32 0.68 -14 0 C-12.04235617 -0.19456705 -10.08384679 -0.38044247 -8.125 -0.5625 C-6.48917969 -0.71912109 -6.48917969 -0.71912109 -4.8203125 -0.87890625 C-2 -1 -2 -1 0 0 Z " fill="#E9EAE9" transform="translate(380,583)"/>
<path d="M0 0 C0 0.33 0 0.66 0 1 C-0.94875 1.28875 -1.8975 1.5775 -2.875 1.875 C-6.05211578 2.76825109 -6.05211578 2.76825109 -8 5 C-8.6425235 7.06874034 -8.6425235 7.06874034 -9 9 C-8.34 9 -7.68 9 -7 9 C-7.33 10.65 -7.66 12.3 -8 14 C-8.66 14 -9.32 14 -10 14 C-11.57047153 6.1647127 -11.57047153 6.1647127 -9.5 1.9375 C-6.20522591 -0.61594992 -4.06533399 -0.3908975 0 0 Z " fill="#040404" transform="translate(119,306)"/>
<path d="M0 0 C0.66 0.33 1.32 0.66 2 1 C-6.07744875 11.74259681 -6.07744875 11.74259681 -12 15 C-10.58397787 11.85093585 -8.86264918 9.50476328 -6.5625 6.9375 C-5.96566406 6.26589844 -5.36882812 5.59429687 -4.75390625 4.90234375 C-3.20703058 3.2245521 -1.62828434 1.59840757 0 0 Z " fill="#161615" transform="translate(367,236)"/>
<path d="M0 0 C1.79244141 0.01740234 1.79244141 0.01740234 3.62109375 0.03515625 C5.41740234 0.04869141 5.41740234 0.04869141 7.25 0.0625 C8.17683594 0.07410156 9.10367187 0.08570313 10.05859375 0.09765625 C9.06859375 1.58265625 9.06859375 1.58265625 8.05859375 3.09765625 C5.45703125 3.609375 5.45703125 3.609375 2.43359375 3.78515625 C0.92925781 3.88376953 0.92925781 3.88376953 -0.60546875 3.984375 C-1.76175781 4.04044922 -1.76175781 4.04044922 -2.94140625 4.09765625 C-3.27140625 3.10765625 -3.60140625 2.11765625 -3.94140625 1.09765625 C-2.94140625 0.09765625 -2.94140625 0.09765625 0 0 Z " fill="#F8F9F8" transform="translate(15.94140625,212.90234375)"/>
<path d="M0 0 C1.23556641 0.01740234 1.23556641 0.01740234 2.49609375 0.03515625 C3.32238281 0.04417969 4.14867188 0.05320313 5 0.0625 C5.63808594 0.07410156 6.27617188 0.08570313 6.93359375 0.09765625 C7.26359375 1.08765625 7.59359375 2.07765625 7.93359375 3.09765625 C6.04231033 4.98893967 3.36291649 4.33434145 0.84375 4.42578125 C-0.10177734 4.26335937 -0.10177734 4.26335937 -1.06640625 4.09765625 C-1.72640625 3.10765625 -2.38640625 2.11765625 -3.06640625 1.09765625 C-2.06640625 0.09765625 -2.06640625 0.09765625 0 0 Z " fill="#FDFDFD" transform="translate(73.06640625,202.90234375)"/>
<path d="M0 0 C2.62187494 1.04874998 3.79371361 1.64931313 5.25 4.125 C5.4975 4.74375 5.745 5.3625 6 6 C5.01 6.99 4.02 7.98 3 9 C1.5 7.875 1.5 7.875 0 6 C-0.1875 2.8125 -0.1875 2.8125 0 0 Z " fill="#EAE8E7" transform="translate(502,42)"/>
<path d="M0 0 C0.33 0 0.66 0 1 0 C1.99 5.28 2.98 10.56 4 16 C3.34 16 2.68 16 2 16 C-1.62870159 5.62642369 -1.62870159 5.62642369 0 0 Z " fill="#141514" transform="translate(28,277)"/>
<path d="M0 0 C0.33 0 0.66 0 1 0 C1.66 6.27 2.32 12.54 3 19 C2.34 19 1.68 19 1 19 C0.67 19.66 0.34 20.32 0 21 C0 14.07 0 7.14 0 0 Z " fill="#D7D7D6" transform="translate(0,231)"/>
<path d="M0 0 C0.33 0.99 0.66 1.98 1 3 C-2.69418201 4.231394 -5.2056261 3.64432764 -9 3 C-8 1 -8 1 -5.0625 -0.1875 C-2 -1 -2 -1 0 0 Z " fill="#F1F1F1" transform="translate(662,447)"/>
<path d="M0 0 C1.875 0.3125 1.875 0.3125 4 1 C4.66 1.99 5.32 2.98 6 4 C8.55183404 5.20450304 8.55183404 5.20450304 11 6 C10.67 6.66 10.34 7.32 10 8 C6.45595664 8 5.89732095 7.39010515 3.3125 5.125 C2.68988281 4.59132813 2.06726563 4.05765625 1.42578125 3.5078125 C0 2 0 2 0 0 Z " fill="#E4E5E4" transform="translate(609,318)"/>
<path d="M0 0 C0 3.93169105 -1.39419615 5.16427228 -4 8 C-4.66 8 -5.32 8 -6 8 C-6 8.66 -6 9.32 -6 10 C-6.99 9.67 -7.98 9.34 -9 9 C-6.03 6.03 -3.06 3.06 0 0 Z " fill="#010101" transform="translate(230,49)"/>
<path d="M0 0 C0.33 0.99 0.66 1.98 1 3 C-2.63 5.31 -6.26 7.62 -10 10 C-10 9.01 -10 8.02 -10 7 C-7.8125 5.17578125 -7.8125 5.17578125 -5 3.3125 C-3.6078125 2.37857422 -3.6078125 2.37857422 -2.1875 1.42578125 C-1.1046875 0.72001953 -1.1046875 0.72001953 0 0 Z " fill="#111110" transform="translate(587,528)"/>
<path d="M0 0 C-2.97 2.475 -2.97 2.475 -6 5 C-6.33 4.34 -6.66 3.68 -7 3 C-7.66 2.67 -8.32 2.34 -9 2 C-9.33 1.34 -9.66 0.68 -10 0 C-6.33694766 -0.74926071 -3.57644848 -1.2380014 0 0 Z " fill="#141514" transform="translate(123,404)"/>
<path d="M0 0 C2.97 0.495 2.97 0.495 6 1 C5.125 5.75 5.125 5.75 4 8 C3.34 7.67 2.68 7.34 2 7 C2.33 6.01 2.66 5.02 3 4 C2.34 4 1.68 4 1 4 C0.67 2.68 0.34 1.36 0 0 Z " fill="#040504" transform="translate(187,318)"/>
<path d="M0 0 C0.66 0.33 1.32 0.66 2 1 C-0.3125 3.5 -0.3125 3.5 -3 6 C-3.99 6 -4.98 6 -6 6 C-4.02 4.02 -2.04 2.04 0 0 Z M-8 7 C-7.34 7.33 -6.68 7.66 -6 8 C-6 9.65 -6 11.3 -6 13 C-8 12 -8 12 -8.6875 10 C-8.790625 9.34 -8.89375 8.68 -9 8 C-8.67 7.67 -8.34 7.34 -8 7 Z " fill="#131312" transform="translate(182,259)"/>
<path d="M0 0 C2.31 0.66 4.62 1.32 7 2 C7 2.66 7 3.32 7 4 C2.71 4 -1.58 4 -6 4 C-6 3.67 -6 3.34 -6 3 C-4.02 2.67 -2.04 2.34 0 2 C0 1.34 0 0.68 0 0 Z " fill="#F3F2F2" transform="translate(324,583)"/>
<path d="M0 0 C3.70066609 0.90460727 5.56497978 1.43868358 7.9375 4.5 C8.288125 5.325 8.63875 6.15 9 7 C8.67 7.66 8.34 8.32 8 9 C6.84775972 8.07038578 5.70340824 7.1309875 4.5625 6.1875 C3.60537109 5.40439453 3.60537109 5.40439453 2.62890625 4.60546875 C1 3 1 3 0 0 Z " fill="#131413" transform="translate(431,589)"/>
<path d="M0 0 C0.99 0.33 1.98 0.66 3 1 C3.33 2.98 3.66 4.96 4 7 C2.68 6.67 1.36 6.34 0 6 C-0.38218767 4.34385343 -0.71395102 2.67542976 -1 1 C-0.67 0.67 -0.34 0.34 0 0 Z " fill="#EAEAE9" transform="translate(154,464)"/>
<path d="M0 0 C2.01822917 0.26041667 4.03645833 0.52083333 6.0546875 0.78125 C8.00498344 1.0372485 8.00498344 1.0372485 10 1 C10 1.66 10 2.32 10 3 C9.34 3 8.68 3 8 3 C8 3.66 8 4.32 8 5 C4.5625 4.1875 4.5625 4.1875 1 3 C0.67 2.01 0.34 1.02 0 0 Z " fill="#0F1010" transform="translate(272,209)"/>
<path d="M0 0 C0.94875 0.185625 1.8975 0.37125 2.875 0.5625 C3.57625 0.706875 4.2775 0.85125 5 1 C5 1.33 5 1.66 5 2 C-0.15171623 2.09038099 -4.91913204 1.84681133 -10 1 C-6.38659291 -1.36261233 -4.11878697 -0.92462565 0 0 Z " fill="#2F2F2E" transform="translate(216,588)"/>
<path d="M0 0 C2.70438996 0.36405249 3.74406383 0.68142682 5.484375 2.84765625 C5.90203125 3.57855469 6.3196875 4.30945313 6.75 5.0625 C7.39195312 6.16271484 7.39195312 6.16271484 8.046875 7.28515625 C8.36140625 7.85105469 8.6759375 8.41695313 9 9 C6.53199953 7.84826645 4.95216435 6.95216435 3 5 C2.46375 4.505 1.9275 4.01 1.375 3.5 C0 2 0 2 0 0 Z " fill="#111211" transform="translate(635,350)"/>
<path d="M0 0 C2.97 0.99 5.94 1.98 9 3 C9 2.34 9 1.68 9 1 C9.99 1.33 10.98 1.66 12 2 C11.67 2.66 11.34 3.32 11 4 C4.6 4.49230769 4.6 4.49230769 1.5625 2 C1.046875 1.34 0.53125 0.68 0 0 Z " fill="#010201" transform="translate(102,284)"/>
<path d="M0 0 C1.04005702 3.38018531 1.08004482 6.4780279 1 10 C-0.70840281 8.36587557 -1.93453047 7.13093906 -3 5 C-1.5625 2.375 -1.5625 2.375 0 0 Z " fill="#F2F4F4" transform="translate(566,209)"/>
<path d="M0 0 C0 3 0 3 -1 6 C-3.5625 7.6875 -3.5625 7.6875 -6 9 C-6 6 -6 6 -4.6875 4.39453125 C-4.130625 3.87246094 -3.57375 3.35039062 -3 2.8125 C-2.443125 2.28269531 -1.88625 1.75289062 -1.3125 1.20703125 C-0.6628125 0.60955078 -0.6628125 0.60955078 0 0 Z " fill="#020202" transform="translate(292,171)"/>
<path d="M0 0 C0.66 0 1.32 0 2 0 C1.67 1.98 1.34 3.96 1 6 C0.34 6 -0.32 6 -1 6 C-1.33 6.66 -1.66 7.32 -2 8 C-1.125 1.125 -1.125 1.125 0 0 Z " fill="#151514" transform="translate(164,325)"/>
<path d="M0 0 C0 0.66 0 1.32 0 2 C-0.66 2.66 -1.32 3.32 -2 4 C-2 4.66 -2 5.32 -2 6 C-3.65 6.33 -5.3 6.66 -7 7 C-3.86206897 0 -3.86206897 0 0 0 Z " fill="#ECE8E8" transform="translate(222,52)"/>
<path d="M0 0 C2.54379491 1.84205838 4.83312509 3.72478134 7 6 C6.67 6.66 6.34 7.32 6 8 C1.3125 4.38671875 1.3125 4.38671875 0 3 C0 2.01 0 1.02 0 0 Z " fill="#181919" transform="translate(41,417)"/>
<path d="M0 0 C0.66 0.33 1.32 0.66 2 1 C1.01 1.33 0.02 1.66 -1 2 C-1.33 2.99 -1.66 3.98 -2 5 C-2.66 4.34 -3.32 3.68 -4 3 C-2.68 2.01 -1.36 1.02 0 0 Z M-6 4 C-5.34 4.33 -4.68 4.66 -4 5 C-4.99 5.66 -5.98 6.32 -7 7 C-6.67 6.01 -6.34 5.02 -6 4 Z " fill="#191A19" transform="translate(12,218)"/>
<path d="M0 0 C1.32 0.33 2.64 0.66 4 1 C4 2.32 4 3.64 4 5 C4.66 5.33 5.32 5.66 6 6 C4.68 6 3.36 6 2 6 C1.34 4.02 0.68 2.04 0 0 Z " fill="#F2F1F0" transform="translate(543,101)"/>
<path d="M0 0 C3.34249629 0.59687434 5.46436342 1.73603877 8 4 C8 4.66 8 5.32 8 6 C4.63408134 4.55746343 2.48952921 2.66735273 0 0 Z " fill="#161615" transform="translate(525,562)"/>
<path d="M0 0 C0.33 0 0.66 0 1 0 C1.125 3.375 1.125 3.375 1 7 C0.34 7.66 -0.32 8.32 -1 9 C-2.0326802 6.21176345 -2.04509293 5.1322726 -1.0625 2.25 C-0.711875 1.5075 -0.36125 0.765 0 0 Z " fill="#101110" transform="translate(143,328)"/>
<path d="M0 0 C-0.598125 0.28875 -1.19625 0.5775 -1.8125 0.875 C-4.19327792 2.04742026 -4.19327792 2.04742026 -7 4 C-7.99 3.67 -8.98 3.34 -10 3 C-7.29536552 -0.8183075 -4.37912428 -0.24787496 0 0 Z " fill="#050606" transform="translate(57,258)"/>
<path d="M0 0 C1.65 0 3.3 0 5 0 C5 0.99 5 1.98 5 3 C3.02 3 1.04 3 -1 3 C-0.67 2.01 -0.34 1.02 0 0 Z " fill="#101110" transform="translate(129,221)"/>
<path d="M0 0 C2.97 0.495 2.97 0.495 6 1 C6 1.99 6 2.98 6 4 C3.69 3.67 1.38 3.34 -1 3 C-0.67 2.01 -0.34 1.02 0 0 Z " fill="#EAE9E6" transform="translate(31,210)"/>
</svg>
