<?xml version="1.0" encoding="UTF-8"?>
<svg version="1.1" xmlns="http://www.w3.org/2000/svg" width="1024" height="1024">
<path d="M0 0 C337.92 0 675.84 0 1024 0 C1024 337.92 1024 675.84 1024 1024 C686.08 1024 348.16 1024 0 1024 C0 686.08 0 348.16 0 0 Z " fill="#F9F9F9" transform="translate(0,0)"/>
<path d="M0 0 C50.3474691 -1.54252744 104.75731465 11.96871051 142.35058594 47.21240234 C143.48968077 48.36131696 144.61780262 49.52132503 145.72949219 50.69677734 C147.20985494 52.27994745 147.20985494 52.27994745 149.60058594 54.04052734 C153.22694691 57.03227515 156.10710001 60.48825188 159.10058594 64.10302734 C159.92816406 65.09302734 160.75574219 66.08302734 161.60839844 67.10302734 C188.02194417 99.30872387 204.91950955 142.08656006 205.33886719 183.92333984 C205.34861572 184.73660233 205.35836426 185.54986481 205.3684082 186.38777161 C205.53575479 203.95361953 205.51478114 220.97468171 201.10058594 238.10302734 C200.89739746 238.90192383 200.69420898 239.70082031 200.48486328 240.52392578 C198.45913841 248.28046602 196.08196381 255.83402545 192.70214844 263.12255859 C191.95626968 265.57814647 192.14529095 266.73389577 193.10058594 269.10302734 C197.24179837 274.45534908 203.04319025 278.57047147 208.27636719 282.78271484 C210.9585226 284.98631141 213.53685015 287.26346559 216.10058594 289.60302734 C219.39000243 292.60371762 222.7440024 295.4531533 226.22558594 298.22802734 C237.83970363 307.66855318 248.41931022 318.32613225 259.03808594 328.85302734 C260.33335205 330.12871582 260.33335205 330.12871582 261.65478516 331.43017578 C267.5706066 337.33802289 272.91909874 343.54542869 278.10058594 350.10302734 C278.68702881 350.83553711 279.27347168 351.56804687 279.87768555 352.32275391 C298.56429036 375.78952273 315.17592488 402.97551743 312.10058594 434.10302734 C311.19418973 438.24417701 310.45698403 441.4510883 307.35058594 444.41552734 C306.88136719 444.88603516 306.41214844 445.35654297 305.92871094 445.84130859 C298.75449981 450.79274063 288.34928351 450.23603295 280.05664062 448.73242188 C270.12386207 446.39629848 261.0755844 441.95100255 252.12158203 437.17236328 C250.1230828 436.11493073 248.10965935 435.09366723 246.08886719 434.07958984 C233.91257454 427.90118406 222.5327545 420.54758857 211.10058594 413.10302734 C208.97815649 411.72317702 206.85533928 410.34397299 204.73022461 408.96826172 C203.04471118 407.87583705 201.36347726 406.77681719 199.68261719 405.67724609 C197.12872986 403.98805027 197.12872986 403.98805027 194.10058594 403.10302734 C195.65909346 411.8450006 199.18212941 415.80355441 206.10058594 421.10302734 C206.8546875 421.72564453 207.60878906 422.34826172 208.38574219 422.98974609 C212.16064358 426.09663489 215.92972133 429.02645158 220.06933594 431.63037109 C230.28338963 438.19526656 230.28338963 438.19526656 232.19824219 442.66552734 C232.30956103 445.99541273 231.7757785 448.83277649 231.10058594 452.10302734 C230.83519066 453.8610139 230.57810524 455.62026539 230.32714844 457.38037109 C228.21805546 471.42959469 224.61598886 484.66038285 220.10058594 498.10302734 C220.77863281 498.09142578 221.45667969 498.07982422 222.15527344 498.06787109 C240.96235491 497.88553097 240.96235491 497.88553097 247.10058594 503.10302734 C249.50048021 506.70286875 249.74194725 507.85400862 249.10058594 512.10302734 C234.86081815 538.25438795 195.24643356 552.24966667 169.10058594 562.10302734 C172.32404468 565.39568377 175.64600406 568.44204391 179.16308594 571.41552734 C184.65858298 576.35410367 187.52826036 580.41470694 188.66308594 587.72802734 C187.94667327 592.02650332 186.5539873 594.53891389 183.10058594 597.10302734 C174.87985312 601.02599103 166.90586255 602.26424964 157.85839844 602.20068359 C157.09002655 602.19926865 156.32165466 602.1978537 155.52999878 602.19639587 C153.09515355 602.19083418 150.660403 602.17828894 148.22558594 602.16552734 C146.56673311 602.16050739 144.90787882 602.15594535 143.24902344 602.15185547 C139.19950824 602.14087732 135.1500631 602.1236394 131.10058594 602.10302734 C130.41996094 603.77365234 130.41996094 603.77365234 129.72558594 605.47802734 C128.10058594 609.10302734 128.10058594 609.10302734 126.10058594 611.10302734 C108.29218237 613.23644265 90.26854469 607.16924716 76.16308594 596.29052734 C70.37484216 590.91880732 66.93789867 583.35393767 64.10058594 576.10302734 C55.43576464 576.97924523 47.0086377 578.97497262 38.51269531 580.84326172 C22.13625289 584.33701836 6.19346375 585.50660747 -10.52441406 585.47802734 C-11.91492477 585.47970413 -11.91492477 585.47970413 -13.33352661 585.48141479 C-30.77656853 585.47112546 -49.02527494 584.91655806 -66.02099609 580.55908203 C-72.95222405 578.87627285 -78.18816143 580.65985067 -84.46191406 583.41552734 C-92.54476484 586.76820218 -100.2496893 588.7847809 -108.89941406 590.10302734 C-109.98456299 590.27431152 -111.06971191 590.4455957 -112.18774414 590.62207031 C-131.69140742 593.14934892 -157.81083691 593.61800074 -174.52441406 581.79052734 C-176.89941406 579.10302734 -176.89941406 579.10302734 -177.58691406 575.60302734 C-176.37852635 569.45123536 -171.57745565 566.83759836 -166.89941406 563.10302734 C-167.72965088 563.03571411 -167.72965088 563.03571411 -168.57666016 562.96704102 C-192.88639141 560.93574922 -192.88639141 560.93574922 -200.08691406 555.85302734 C-201.89941406 553.10302734 -201.89941406 553.10302734 -202.21191406 549.66552734 C-200.11457468 543.97274902 -196.19253371 541.63241625 -190.81347656 539.13427734 C-182.28040094 536.14021572 -172.84618549 535.88380308 -163.89941406 535.10302734 C-167.33862449 530.55682106 -170.81625709 526.14344468 -174.71191406 521.97802734 C-197.79609361 496.17018251 -210.39064173 456.49809671 -208.89941406 422.10302734 C-209.51510254 422.22492432 -210.13079102 422.34682129 -210.76513672 422.47241211 C-218.89424636 424.02176844 -227.05900293 425.07000283 -235.27441406 426.04052734 C-235.9875174 426.12540405 -236.70062073 426.21028076 -237.43533325 426.29772949 C-241.87119627 426.82500656 -246.30807985 427.34293182 -250.74578857 427.85443115 C-252.82080007 428.09395281 -254.89551634 428.33590964 -256.97021484 428.578125 C-300.78261985 433.63867435 -300.78261985 433.63867435 -315.62207031 423.18505859 C-321.50624425 417.80553079 -323.23808852 407.66709288 -324.89941406 400.10302734 C-324.89941406 399.11302734 -324.89941406 398.12302734 -324.89941406 397.10302734 C-325.68316406 397.06177734 -326.46691406 397.02052734 -327.27441406 396.97802734 C-336.5829165 394.73114745 -343.22106595 388.91719049 -348.23144531 380.99755859 C-355.4280062 368.01765875 -358.47181689 351.32447847 -355.13378906 336.76318359 C-353.26160083 331.2283414 -351.05249959 326.18104836 -346.02050781 322.86474609 C-343.89711958 321.3895938 -342.42749594 320.19570715 -340.89941406 318.10302734 C-340.85802145 315.68093851 -340.85802145 315.68093851 -341.53442383 313.08251953 C-341.85227341 311.61486145 -341.85227341 311.61486145 -342.17654419 310.11755371 C-342.53436478 308.62536316 -342.53436478 308.62536316 -342.89941406 307.10302734 C-343.10936005 306.20201294 -343.31930603 305.30099854 -343.53561401 304.37268066 C-344.20265459 301.59339228 -344.90391497 298.82467558 -345.61425781 296.05615234 C-345.87066544 295.04188171 -346.12707306 294.02761108 -346.39125061 292.98260498 C-347.47406336 288.69974325 -348.5653099 284.41904331 -349.65600586 280.13818359 C-360.63832048 236.96199812 -360.63832048 236.96199812 -356.98535156 227.81396484 C-353.12583272 221.96243628 -347.47454505 219.06627835 -340.89941406 217.10302734 C-338.36345282 216.59506757 -335.84922448 216.13649518 -333.29785156 215.72802734 C-332.53666016 215.60250992 -331.77546875 215.47699249 -330.99121094 215.34767151 C-328.41993333 214.92643194 -325.84735979 214.51394934 -323.27441406 214.10302734 C-321.92564178 213.88608719 -321.92564178 213.88608719 -320.54962158 213.6647644 C-313.0032804 212.45343265 -305.45208203 211.27419223 -297.89941406 210.10302734 C-297.23460022 209.99979408 -296.56978638 209.89656082 -295.88482666 209.79019928 C-286.20026828 208.28684974 -276.5124064 206.80684101 -266.82061768 205.35083008 C-263.81128451 204.89841723 -260.80286788 204.44051754 -257.79510498 203.9777832 C-213.87124511 197.23354373 -213.87124511 197.23354373 -201.08691406 206.04052734 C-193.64805943 216.45492383 -192.59580447 232.61127308 -190.14941406 244.91552734 C-189.73465364 246.97619591 -189.31929364 249.0367439 -188.90332031 251.09716797 C-187.89510423 256.0977585 -186.8950026 261.09990812 -185.89941406 266.10302734 C-181.78552245 266.10302734 -180.78552901 264.44912407 -177.83691406 261.66552734 C-173.06021808 257.18342935 -173.06021808 257.18342935 -170.89941406 256.10302734 C-172.17994566 252.62076538 -173.77775547 249.46612373 -175.61547852 246.24633789 C-193.23196735 215.05246546 -194.50378811 175.15271379 -185.06982422 141.109375 C-177.43868614 115.01460526 -165.21610613 89.43592245 -146.89941406 69.10302734 C-146.20847656 68.30509766 -145.51753906 67.50716797 -144.80566406 66.68505859 C-134.49022614 54.93069183 -123.53313216 44.32880607 -110.89941406 35.10302734 C-110.33593262 34.68456543 -109.77245117 34.26610352 -109.19189453 33.83496094 C-86.41729916 17.09527412 -59.5274397 7.81545836 -31.89941406 3.10302734 C-30.71863281 2.88904297 -29.53785156 2.67505859 -28.32128906 2.45458984 C-18.91388968 0.85579537 -9.51659827 0.33816137 0 0 Z " fill="#0A0B09" transform="translate(504.8994140625,126.89697265625)"/>
<path d="M0 0 C8.79952963 6.43112621 13.35295636 14.30930257 17.19921875 24.37890625 C17.44148193 25.00635742 17.68374512 25.63380859 17.93334961 26.28027344 C21.6464081 36.54000582 22.18450821 46.67231988 22.07421875 57.50390625 C22.07325195 59.31955078 22.07325195 59.31955078 22.07226562 61.171875 C21.98475455 79.04358053 21.98475455 79.04358053 19.53442383 82.0234375 C17.03626185 84.07852645 14.20314704 85.17737977 11.26171875 86.50390625 C-2.11713723 92.9639677 -10.54696759 104.95504189 -15.84765625 118.63671875 C-17.06487716 122.23578551 -17.63631647 124.63048716 -17.11328125 128.37890625 C-14.79055431 131.47587551 -12.5716268 131.87756553 -8.86328125 132.56640625 C-2.5061626 134.13886814 0.10264173 137.27862852 3.88671875 142.37890625 C4.66789062 143.05566406 4.66789062 143.05566406 5.46484375 143.74609375 C7.51204222 146.09699749 7.88338698 148.49768606 8.63671875 151.50390625 C11.70800797 161.92311005 17.43343883 168.20447935 26.88671875 173.37890625 C27.47710937 173.71921875 28.0675 174.05953125 28.67578125 174.41015625 C36.78236836 178.2670347 48.4450736 177.56101745 56.76171875 174.81640625 C70.28580166 168.97692217 78.04244698 159.48209132 83.734375 146.0859375 C84.90356604 143.3393294 86.17845999 140.67438002 87.51171875 138.00390625 C87.9190625 137.18535156 88.32640625 136.36679687 88.74609375 135.5234375 C89.88671875 133.37890625 89.88671875 133.37890625 91.76171875 130.69140625 C93.46094195 127.19855856 92.92276118 125.06980739 91.88671875 121.37890625 C90.71550848 119.94742704 89.53529611 118.52021838 88.2734375 117.16796875 C86.53317784 114.92278868 85.56083048 112.61565419 84.44921875 110.00390625 C81.1970848 102.57333393 77.83931978 97.56047807 70.94921875 93.19140625 C68.22324102 91.12738602 67.04811521 90.17154222 66.359375 86.7890625 C66.53825335 83.22525541 67.12896838 79.85421763 67.88671875 76.37890625 C68.05075195 75.57485352 68.21478516 74.77080078 68.38378906 73.94238281 C73.01522351 51.56963368 80.81639638 34.72790473 96.88671875 18.37890625 C97.593125 17.63640625 98.29953125 16.89390625 99.02734375 16.12890625 C111.66906666 3.77668845 128.25549998 -0.46755967 145.44921875 -1.05859375 C153.36523672 -0.88323892 160.4128663 0.92163281 167.88671875 3.37890625 C168.80324219 3.67925781 169.71976563 3.97960937 170.6640625 4.2890625 C191.61851506 11.93594803 207.12363715 29.87529058 216.88671875 49.37890625 C230.84823749 80.03759636 233.12959158 113.40999513 221.69921875 145.31640625 C213.71905877 166.25374027 199.84229014 182.77955463 181.67578125 195.66015625 C180.94359375 196.19898438 180.21140625 196.7378125 179.45703125 197.29296875 C178.79461426 197.76686035 178.13219727 198.24075195 177.44970703 198.72900391 C175.39807116 200.89472637 175.09727021 202.42946474 174.88671875 205.37890625 C176.4286316 208.58608498 178.17265078 211.36151737 180.2109375 214.265625 C204.40540114 249.06588093 213.08764978 293.95803797 213.19921875 335.56640625 C213.20183716 336.49965729 213.20445557 337.43290833 213.20715332 338.3944397 C213.21157609 353.12021775 212.29696371 367.00106991 208.88671875 381.37890625 C208.59428052 382.74592892 208.30256112 384.11310566 208.01171875 385.48046875 C200.74478103 416.30007067 180.55631273 447.84131765 153.48364258 464.97094727 C137.36401266 474.74660315 119.50559189 480.87775447 100.95947266 484.02294922 C99.53259202 484.2679895 98.10782578 484.52556408 96.68505859 484.79345703 C45.63962848 494.33154351 -16.55450175 485.21727554 -60.08203125 455.75 C-77.28155451 443.67309407 -91.5291865 429.28396327 -101.11328125 410.37890625 C-101.70882813 409.21359375 -102.304375 408.04828125 -102.91796875 406.84765625 C-113.08125273 385.86222712 -118.57512052 360.68820596 -118.11328125 337.37890625 C-117.25605469 337.15976562 -116.39882813 336.940625 -115.515625 336.71484375 C-105.60187183 334.03282744 -105.60187183 334.03282744 -98.11328125 327.37890625 C-91.64996614 314.51475705 -97.06342812 297.90454769 -99.67578125 284.37890625 C-100.17333476 281.78775413 -100.66781297 279.19617802 -101.15354919 276.6027832 C-101.4525215 275.00752955 -101.75807351 273.41348819 -102.07167053 271.82104492 C-103.53832135 264.01674302 -103.63485582 257.38041789 -100.61328125 249.87890625 C-100.34628418 249.1945752 -100.07928711 248.51024414 -99.80419922 247.80517578 C-96.71798568 240.09052321 -93.02137252 232.70471284 -89.11328125 225.37890625 C-88.79101562 224.76772949 -88.46875 224.15655273 -88.13671875 223.52685547 C-83.88472139 215.52627304 -79.0669472 208.3783873 -73.41015625 201.31640625 C-69.0113082 196.14527949 -69.0113082 196.14527949 -66.78979492 189.9362793 C-67.20332535 186.66704816 -68.1969314 185.75042822 -70.5859375 183.5234375 C-71.31756104 182.82404053 -72.04918457 182.12464355 -72.80297852 181.40405273 C-73.58600342 180.67387939 -74.36902832 179.94370605 -75.17578125 179.19140625 C-86.98595945 167.74912376 -86.98595945 167.74912376 -91.11328125 160.37890625 C-91.43586914 159.80350098 -91.75845703 159.2280957 -92.09082031 158.63525391 C-106.96223633 131.67653702 -109.86113984 100.150408 -101.859375 70.546875 C-93.37809858 41.2714484 -76.54761829 15.21208741 -49.44384766 0.06347656 C-33.55162495 -8.38183297 -15.47329646 -10.17008423 0 0 Z " fill="#F9F9F9" transform="translate(435.11328125,208.62109375)"/>
<path d="M0 0 C0.763125 0.00902344 1.52625 0.01804687 2.3125 0.02734375 C2.869375 0.03894531 3.42625 0.05054688 4 0.0625 C9.47689465 25.3481096 14.00557534 50.78464727 18.16955566 76.31411743 C20.77798777 92.25509677 23.77920733 108.11929288 26.84106445 123.97875977 C28.66546103 133.48731115 30.37057895 142.99490259 31.7578125 152.578125 C31.9452729 153.86160072 31.9452729 153.86160072 32.13652039 155.17100525 C32.96966078 161.14865782 33.38180515 167.02432232 33 173.0625 C28.45419897 174.44261736 24.11179487 175.44589807 19.38818359 176.06811523 C18.11510345 176.23846786 16.84202332 176.4088205 15.53036499 176.58433533 C14.15306537 176.76332827 12.77575594 176.9422457 11.3984375 177.12109375 C9.95652913 177.31234345 8.5146866 177.50409005 7.07290649 177.69630432 C3.27744643 178.20109714 -0.51878715 178.6998077 -4.31524658 179.19702148 C-10.32594081 179.98546548 -16.33530499 180.7840257 -22.3449173 181.58066559 C-24.52896092 181.86975665 -26.71316713 182.15759339 -28.8973999 182.44525146 C-37.78831892 183.61878728 -46.67176829 184.83594607 -55.53652954 186.19517517 C-73.0132821 188.7982901 -73.0132821 188.7982901 -79.78125 185.8515625 C-83.29484566 183.0184167 -83.78896025 180.20435081 -84.58984375 175.87109375 C-84.70457031 174.75863281 -84.81929687 173.64617187 -84.9375 172.5 C-85.07027344 171.38496094 -85.20304687 170.26992188 -85.33984375 169.12109375 C-85 166.0625 -85 166.0625 -82.73046875 163.9609375 C-81.82941406 163.33445312 -80.92835938 162.70796875 -80 162.0625 C-71.13882512 151.26633387 -67.89211122 141.00886462 -69 127.0625 C-71.11167262 117.13193145 -78.18408794 109.45937653 -86.375 103.8125 C-88.78591368 102.30037281 -91.10760028 101.0169032 -93.73156738 99.90496826 C-97.88388962 98.05604243 -101.15926912 96.58438734 -103.41040039 92.50939941 C-104.37182474 89.35642733 -105.02412305 86.26231158 -105.59375 83.015625 C-105.8374231 81.849245 -106.08109619 80.68286499 -106.33215332 79.48114014 C-107.0988416 75.76558871 -107.80073555 72.04126737 -108.5 68.3125 C-109.24228413 64.60204462 -109.99748874 60.89437764 -110.75354004 57.18670654 C-111.21778356 54.88494136 -111.67146154 52.58101049 -112.1126709 50.27471924 C-113.2347739 44.45346456 -114.55412238 38.8230058 -116.38276672 33.18087769 C-117.27567403 30.11637196 -117.5184522 27.11559863 -117.6875 23.9375 C-117.75324219 22.82117188 -117.81898438 21.70484375 -117.88671875 20.5546875 C-117.92410156 19.73226563 -117.96148437 18.90984375 -118 18.0625 C-110.82358438 14.99588631 -103.54242057 13.66368046 -95.875 12.375 C-95.16354828 12.25299225 -94.45209656 12.1309845 -93.71908569 12.00527954 C-67.91017389 7.61165498 -41.83889336 4.63886515 -15.86196899 1.42098999 C-14.10286062 1.20064423 -12.34436569 0.97524406 -10.58700562 0.74136353 C-7.03588021 0.27120257 -3.58305433 -0.05598522 0 0 Z " fill="#F9F9F9" transform="translate(285,350.9375)"/>
<path d="M0 0 C1.20462891 0.01232666 1.20462891 0.01232666 2.43359375 0.02490234 C3.31273437 0.02876953 4.191875 0.03263672 5.09765625 0.03662109 C6.47050781 0.07335937 6.47050781 0.07335937 7.87109375 0.11083984 C9.24394531 0.11277344 9.24394531 0.11277344 10.64453125 0.11474609 C17.44914863 0.2045431 17.44914863 0.2045431 20.87109375 2.48583984 C21.20880892 5.31608746 21.3601271 7.93827951 21.3828125 10.77490234 C21.4097393 12.00253799 21.4097393 12.00253799 21.43721008 13.25497437 C21.49146889 15.87354349 21.52525779 18.49192879 21.55859375 21.11083984 C21.59175318 22.88430302 21.62624154 24.65774188 21.66210938 26.43115234 C21.74720394 30.78258248 21.81394015 35.13395663 21.87109375 39.48583984 C22.45117188 39.14810547 23.03125 38.81037109 23.62890625 38.46240234 C30.87959212 34.3225718 36.65879601 32.10717645 45.12109375 32.17333984 C46.25043335 32.18179932 46.25043335 32.18179932 47.40258789 32.19042969 C58.3122855 32.42752048 67.63665377 35.95489698 75.87890625 43.26708984 C84.67342918 52.55654264 88.27976447 64.80433792 88.12109375 77.36083984 C88.11287598 78.15312988 88.1046582 78.94541992 88.09619141 79.76171875 C87.8495208 92.69203298 84.40159648 105.17193945 74.87109375 114.48583984 C64.7521831 122.82014261 54.8515951 126.4253581 41.7578125 125.88037109 C34.22663355 125.11589966 28.24184922 122.43502929 21.87109375 118.48583984 C21.21109375 120.13583984 20.55109375 121.78583984 19.87109375 123.48583984 C12.28109375 123.48583984 4.69109375 123.48583984 -3.12890625 123.48583984 C-4.99930084 119.74505067 -5.38000574 118.58890145 -5.38960266 114.66589355 C-5.39668747 113.69854782 -5.40377228 112.73120209 -5.41107178 111.73454285 C-5.40859436 110.6798732 -5.40611694 109.62520355 -5.40356445 108.53857422 C-5.40867538 107.42275467 -5.41378632 106.30693512 -5.41905212 105.15730286 C-5.43296557 101.46467748 -5.43199018 97.77223834 -5.4296875 94.07958984 C-5.43357309 91.51656016 -5.43790747 88.95353113 -5.44267273 86.39050293 C-5.45013846 81.01714722 -5.44997886 75.64386391 -5.44458008 70.27050781 C-5.43853678 64.06063259 -5.45086135 57.85098374 -5.47215015 51.64114714 C-5.49188636 45.66424621 -5.49494051 39.68746393 -5.49141502 33.71052551 C-5.49192931 31.16835498 -5.49718705 28.62618091 -5.50722694 26.08403015 C-5.51952914 22.53354311 -5.51283693 18.98358373 -5.5012207 15.43310547 C-5.50886444 14.37843582 -5.51650818 13.32376617 -5.52438354 12.23713684 C-5.51736923 11.26979111 -5.51035492 10.30244537 -5.50312805 9.30578613 C-5.50329579 8.46661903 -5.50346354 7.62745193 -5.50363636 6.76285553 C-4.92985806 3.27634045 -3.54469112 0.80893754 0 0 Z " fill="#0A0B0A" transform="translate(617.12890625,771.51416015625)"/>
<path d="M0 0 C0.92425781 0.00064453 1.84851563 0.00128906 2.80078125 0.00195312 C4.24517578 0.02612305 4.24517578 0.02612305 5.71875 0.05078125 C6.68167969 0.04755859 7.64460937 0.04433594 8.63671875 0.04101562 C15.81798115 0.09610202 15.81798115 0.09610202 19.21875 2.36328125 C19.51948469 4.85343431 19.62521164 7.09883373 19.60351562 9.59179688 C19.6088884 10.3368045 19.61426117 11.08181213 19.61979675 11.84939575 C19.62959523 13.47102766 19.63251267 15.09271213 19.62944031 16.71437073 C19.62496737 19.28830937 19.6389515 21.8615584 19.65783691 24.4354248 C19.69469043 29.9113654 19.70831921 35.38723495 19.71875 40.86328125 C19.73085582 47.18307793 19.75265099 53.50254143 19.79875183 59.82218933 C19.81223362 62.34468999 19.80816492 64.86676021 19.80334473 67.38928223 C19.83548666 76.9141906 20.13952825 85.47275259 25.34375 93.73828125 C31.87580812 99.70233432 38.30486978 101.05302004 47.0625 100.74609375 C53.30817319 99.98857398 57.51870297 97.95245565 62.09375 93.67578125 C67.77601753 84.81812892 67.64852309 75.99192734 67.62944031 65.84236336 C67.62492883 63.23226434 67.63905085 60.62283124 67.65783691 58.01280212 C67.70065973 51.54103856 67.71190957 45.06929266 67.72406006 38.59741211 C67.73556678 33.10645098 67.75903202 27.61579932 67.79875183 22.12496758 C67.8123537 19.55112228 67.80814845 16.97769115 67.80334473 14.40382385 C67.8126784 12.83569805 67.82284545 11.26757691 67.83398438 9.69946289 C67.82783615 8.9820845 67.82168793 8.26470612 67.81535339 7.52558899 C67.84020996 5.54237366 67.84020996 5.54237366 68.21875 2.36328125 C71.4849453 0.18581772 72.46820834 0.10721696 76.25390625 0.09765625 C77.71473633 0.09378906 77.71473633 0.09378906 79.20507812 0.08984375 C80.22021484 0.09757813 81.23535156 0.1053125 82.28125 0.11328125 C83.30025391 0.10554687 84.31925781 0.0978125 85.36914062 0.08984375 C86.82803711 0.09371094 86.82803711 0.09371094 88.31640625 0.09765625 C89.20851807 0.09991211 90.10062988 0.10216797 91.01977539 0.10449219 C93.21875 0.36328125 93.21875 0.36328125 95.21875 2.36328125 C95.42773082 4.97489758 95.51240317 7.4813608 95.50927734 10.0949707 C95.51599457 10.89368088 95.52271179 11.69239105 95.52963257 12.51530457 C95.54870167 15.16911985 95.55254294 17.82268284 95.5546875 20.4765625 C95.56111546 22.32586267 95.56784382 24.17516181 95.57485962 26.02445984 C95.58685898 29.91257071 95.59053834 33.80059262 95.58935547 37.6887207 C95.58915354 42.6402128 95.61631156 47.59112271 95.65089989 52.54247761 C95.67329949 56.36983279 95.67718884 60.19705158 95.67613602 64.02446556 C95.67847792 65.84748504 95.68722081 67.67050911 95.70280075 69.49346352 C95.82777382 85.6454219 93.97807227 99.36753198 82.40625 111.55078125 C70.70386492 122.64637599 57.00392676 126.11202786 41.21679688 125.88427734 C27.36307763 125.35718135 14.48372928 120.57737072 4.28125 110.92578125 C3.23015342 109.76498285 2.20733822 108.57775656 1.21875 107.36328125 C0.75984375 106.80511719 0.3009375 106.24695313 -0.171875 105.671875 C-8.53835012 94.00417024 -8.37557198 78.98345728 -8.27734375 65.28515625 C-8.27749913 63.4977411 -8.27899446 61.71032562 -8.28175354 59.9229126 C-8.28312582 56.21163704 -8.27076333 52.50075356 -8.24780273 48.78955078 C-8.21917085 44.03142386 -8.22223804 39.27393455 -8.23489285 34.51575851 C-8.24183377 30.84064253 -8.23408313 27.16567475 -8.22163582 23.4905777 C-8.21712332 21.73467832 -8.21678276 19.97876305 -8.22070122 18.22286224 C-8.22360419 15.78202808 -8.20716032 13.34208834 -8.18530273 10.90136719 C-8.18980438 10.17830887 -8.19430603 9.45525055 -8.19894409 8.71028137 C-8.15539991 5.79113899 -8.11674713 3.83462698 -6.39479065 1.41542053 C-4.18656324 -0.02449535 -2.62497791 -0.00926051 0 0 Z " fill="#080A08" transform="translate(191.78125,771.63671875)"/>
<path d="M0 0 C0.6909375 0.25523437 1.381875 0.51046875 2.09375 0.7734375 C12.50908822 5.27848459 21.60120189 15.1112767 26.05859375 25.45703125 C30.52700201 38.34913738 30.00367915 51.29877745 24.78125 63.953125 C18.24021885 76.96250918 7.96840667 84.06892305 -5.44140625 88.875 C-17.96353128 92.19578454 -31.37298802 90.11088496 -42.75 84.25 C-53.87563208 77.73470179 -61.50152204 69.10478071 -65.3046875 56.640625 C-67.98489592 42.60717418 -66.79015092 29.45908285 -59.1875 17.25 C-58.15004244 15.81489286 -57.08829144 14.39695112 -56 13 C-55.54496094 12.39542969 -55.08992187 11.79085937 -54.62109375 11.16796875 C-41.64408818 -3.84198809 -17.76770813 -6.81095478 0 0 Z " fill="#090A09" transform="translate(785,807)"/>
<path d="M0 0 C6.19878672 4.35322004 11.89730204 9.50169974 14 17 C14.95358363 23.30370373 15.17741049 29.48253982 15.24609375 35.8515625 C15.27900792 37.94010874 15.31221994 40.0286503 15.34570312 42.1171875 C15.39319613 45.3801784 15.43771739 48.64314713 15.47680664 51.90625 C15.51656769 55.07570577 15.56806907 58.24480472 15.62109375 61.4140625 C15.6295079 62.38606598 15.63792206 63.35806946 15.64659119 64.35952759 C15.73724605 69.34222622 16.21915557 73.28879531 18 78 C17.58333333 83.41666667 17.58333333 83.41666667 15 86 C11.8756482 86.47188458 8.71850061 86.37035541 5.5625 86.375 C4.25442383 86.41173828 4.25442383 86.41173828 2.91992188 86.44921875 C-3.47107381 86.47869298 -3.47107381 86.47869298 -6.09765625 84.1015625 C-7 82 -7 82 -7 80 C-11.47955173 81.86647989 -15.80917679 83.87529045 -20.10546875 86.1328125 C-28.72195618 90.07685417 -43.1075969 89.36049324 -51.89453125 86.09375 C-58.52004168 82.6519264 -63.10187201 77.679235 -66.1484375 70.87109375 C-68.37094294 63.37778411 -68.17535608 55.64264597 -64.9375 48.5 C-60.1162538 40.26201629 -52.91101874 35.94271791 -43.85131836 33.39599609 C-36.5098001 31.78075112 -29.36648338 31.77072882 -21.875 31.875 C-20.63234375 31.88402344 -19.3896875 31.89304687 -18.109375 31.90234375 C-15.07270996 31.92570271 -12.03646147 31.95845717 -9 32 C-9.43791261 30.38397454 -9.88821688 28.77130345 -10.34375 27.16015625 C-10.71790039 25.81256226 -10.71790039 25.81256226 -11.09960938 24.43774414 C-12.31896698 21.13641939 -13.98228649 19.73518527 -17 18 C-22.38575428 16.20474857 -28.50431558 16.14877413 -33.875 18.125 C-37.21438916 19.76191952 -37.21438916 19.76191952 -38.62890625 23.08203125 C-41 26 -41 26 -42.95703125 26.53613281 C-45.35116863 26.70021378 -47.66545269 26.67102398 -50.0625 26.5625 C-50.87783203 26.56056641 -51.69316406 26.55863281 -52.53320312 26.55664062 C-58.43448153 26.42571662 -58.43448153 26.42571662 -60.72827148 24.69897461 C-62.51549033 22.31132709 -62.47307644 20.0894895 -62.33984375 17.1796875 C-61.27718172 10.3639931 -57.44176964 5.81190673 -52.22265625 1.5390625 C-38.00311667 -8.30715647 -14.84280162 -8.4311819 0 0 Z " fill="#090A08" transform="translate(573,809)"/>
<path d="M0 0 C1.43182617 -0.02416992 1.43182617 -0.02416992 2.89257812 -0.04882812 C3.81361328 -0.04947266 4.73464844 -0.05011719 5.68359375 -0.05078125 C6.5233374 -0.05376221 7.36308105 -0.05674316 8.22827148 -0.05981445 C11.32661154 0.43437743 12.41474301 0.98154885 14.5625 3.3125 C14.94297931 6.45060944 15.06802525 9.23590809 15.01660156 12.3737793 C15.01718567 13.30080658 15.01776978 14.22783386 15.01837158 15.18295288 C15.01558183 18.25125396 14.98444747 21.3185871 14.953125 24.38671875 C14.94566579 26.51234913 14.93997135 28.63798639 14.93597412 30.7636261 C14.92069268 36.36157172 14.88138897 41.95910299 14.8371582 47.55688477 C14.79625976 53.26768386 14.7779747 58.97854983 14.7578125 64.68945312 C14.71489737 75.89731758 14.64661549 87.10487435 14.5625 98.3125 C15.24932358 98.32280746 15.93614716 98.33311493 16.64378357 98.34373474 C23.76465857 98.45155595 30.88540074 98.56617283 38.00610352 98.68481445 C40.66688265 98.7282418 43.32769107 98.7699109 45.98852539 98.80981445 C49.80363815 98.86732872 53.61860242 98.93107668 57.43359375 98.99609375 C58.63149033 99.01280624 59.8293869 99.02951874 61.06358337 99.04673767 C62.1646492 99.06668289 63.26571503 99.08662811 64.40014648 99.10717773 C65.8624192 99.13049416 65.8624192 99.13049416 67.35423279 99.15428162 C69.5625 99.3125 69.5625 99.3125 70.5625 100.3125 C70.64950342 101.94722882 70.66951063 103.58564055 70.66015625 105.22265625 C70.65532227 106.70668945 70.65532227 106.70668945 70.65039062 108.22070312 C70.63782227 109.78208008 70.63782227 109.78208008 70.625 111.375 C70.62048828 112.41978516 70.61597656 113.46457031 70.61132812 114.54101562 C70.59949913 117.1315666 70.58301689 119.72200559 70.5625 122.3125 C67.01672813 123.49442396 63.79951892 123.46785427 60.109375 123.47363281 C58.97477844 123.48108017 58.97477844 123.48108017 57.81726074 123.48867798 C55.31566458 123.50328108 52.81413177 123.51009729 50.3125 123.515625 C48.57519529 123.52137648 46.8378906 123.52713421 45.10058594 123.53289795 C41.45898136 123.54340162 37.81739884 123.54924893 34.17578125 123.55273438 C29.50481673 123.55822819 24.83414238 123.58227765 20.16326904 123.61070633 C16.57567484 123.62930609 12.98815105 123.63453681 9.4005127 123.63607025 C7.67808439 123.63910162 5.95565746 123.64714642 4.23327637 123.66025543 C1.82716568 123.67726617 -0.57822897 123.67544858 -2.984375 123.66894531 C-4.05516296 123.68276749 -4.05516296 123.68276749 -5.14758301 123.6968689 C-9.96428478 123.65598297 -9.96428478 123.65598297 -12.12005043 122.09122181 C-13.84445576 119.76305879 -13.81467915 118.36932139 -13.81845093 115.48545837 C-13.8269104 114.49135452 -13.83536987 113.49725067 -13.84408569 112.47302246 C-13.838013 111.38356323 -13.83194031 110.294104 -13.82568359 109.17163086 C-13.83094055 108.02348404 -13.83619751 106.87533722 -13.84161377 105.69239807 C-13.85484628 101.88724267 -13.84606442 98.0825036 -13.8359375 94.27734375 C-13.83795715 91.64083272 -13.84086767 89.00432223 -13.84463501 86.36781311 C-13.85009369 80.83883121 -13.84289729 75.30996951 -13.82861328 69.78100586 C-13.81227836 63.38421791 -13.81758072 56.98771668 -13.8340925 50.59093565 C-13.84933161 44.44155688 -13.84773841 38.2923055 -13.8389473 32.14291573 C-13.83694041 29.52373782 -13.83942157 26.90455264 -13.84638596 24.28538322 C-13.85396961 20.63138052 -13.84243936 16.97793556 -13.82568359 13.32397461 C-13.83175629 12.23249115 -13.83782898 11.14100769 -13.84408569 10.01644897 C-13.83562622 9.02516495 -13.82716675 8.03388092 -13.81845093 7.01255798 C-13.81731985 6.14812545 -13.81618877 5.28369291 -13.81502342 4.39306545 C-13.69044069 3.70647885 -13.56585796 3.01989225 -13.4375 2.3125 C-9.07711205 -0.5944253 -5.12801224 -0.01724281 0 0 Z " fill="#0A0B09" transform="translate(421.4375,771.6875)"/>
<path d="M0 0 C0.92425781 -0.00257813 1.84851563 -0.00515625 2.80078125 -0.0078125 C3.76371094 -0.00007812 4.72664063 0.00765625 5.71875 0.015625 C7.16314453 0.00402344 7.16314453 0.00402344 8.63671875 -0.0078125 C9.56097656 -0.00523437 10.48523438 -0.00265625 11.4375 0 C12.28248047 0.00225586 13.12746094 0.00451172 13.99804688 0.00683594 C16.21875 0.265625 16.21875 0.265625 19.21875 2.265625 C19.59348011 4.34619045 19.59348011 4.34619045 19.5929718 6.96568298 C19.60349327 8.45260902 19.60349327 8.45260902 19.61422729 9.96957397 C19.60658356 11.06105743 19.59893982 12.15254089 19.59106445 13.27709961 C19.59471512 14.42349411 19.59836578 15.56988861 19.60212708 16.75102234 C19.61026143 20.55681984 19.5965973 24.36219539 19.58203125 28.16796875 C19.58151296 30.80351257 19.58202946 33.43905678 19.58354187 36.07460022 C19.58442543 41.60536781 19.57333259 47.13601298 19.55493164 52.66674805 C19.53377344 59.06287986 19.53025152 65.45883214 19.5364936 71.85499185 C19.54218736 78.00381953 19.53643675 84.15257377 19.52532005 90.30139351 C19.52146238 92.9197419 19.52032218 95.53809571 19.5219059 98.15644646 C19.52227556 101.81265524 19.50968349 105.46858836 19.4934082 109.12475586 C19.49588562 110.21421509 19.49836304 111.30367432 19.50091553 112.42614746 C19.49028831 113.91730324 19.49028831 113.91730324 19.47944641 115.43858337 C19.47739354 116.30339293 19.47534067 117.1682025 19.47322559 118.05921841 C19.21875 120.265625 19.21875 120.265625 17.21875 123.265625 C14.91210938 123.63793945 14.91210938 123.63793945 12.0625 123.62890625 C11.04027344 123.62826172 10.01804687 123.62761719 8.96484375 123.62695312 C7.89363281 123.61083984 6.82242187 123.59472656 5.71875 123.578125 C4.11193359 123.58295898 4.11193359 123.58295898 2.47265625 123.58789062 C-5.51437996 123.53249504 -5.51437996 123.53249504 -7.78125 121.265625 C-8.03572559 119.16664886 -8.03572559 119.16664886 -8.04194641 116.52087402 C-8.04903122 115.51973068 -8.05611603 114.51858734 -8.06341553 113.48710632 C-8.06093811 112.38470108 -8.05846069 111.28229584 -8.0559082 110.14648438 C-8.06101913 108.98873001 -8.06613007 107.83097565 -8.07139587 106.63813782 C-8.08534381 102.79516491 -8.08433132 98.95237027 -8.08203125 95.109375 C-8.08493421 93.12087199 -8.08784125 91.1323689 -8.091438 89.14386702 C-8.10254123 82.8900011 -8.10296581 76.63619523 -8.09692383 70.38232422 C-8.09088011 63.92365403 -8.10320309 57.46520148 -8.1244939 51.00656843 C-8.14208628 45.46682578 -8.14811508 39.92715256 -8.14485615 34.38738298 C-8.14303958 31.07627556 -8.14701981 27.76535862 -8.15957069 24.45426941 C-8.17184131 20.76426181 -8.16519987 17.07476443 -8.15356445 13.38476562 C-8.16120819 12.28236038 -8.16885193 11.17995514 -8.17672729 10.04414368 C-8.16971298 9.04300034 -8.16269867 8.04185699 -8.1554718 7.01037598 C-8.15563954 6.13727028 -8.15580729 5.26416458 -8.15598011 4.36460114 C-8.03231917 3.67193901 -7.90865824 2.97927689 -7.78125 2.265625 C-4.57310112 0.12685908 -3.6935427 0.00986072 0 0 Z " fill="#0B0C0B" transform="translate(321.78125,771.734375)"/>
<path d="M0 0 C5.3479658 3.14848926 9.32044039 7.82531815 12.125 13.3125 C13.66268205 22.02603161 13.37206488 29.95082198 8.3984375 37.44140625 C5.2123547 41.52197754 1.86690668 44.42773836 -3.3125 45.5 C-10.71312981 46.31662122 -17.23934332 46.13620443 -23.3125 41.5 C-28.09151458 36.99833894 -30.96187461 32.72944434 -31.68359375 26.08203125 C-31.82666578 17.96058948 -31.47026003 11.17550487 -26.3125 4.5 C-19.29466198 -2.11857372 -8.94675732 -3.98218414 0 0 Z " fill="#F9F9F9" transform="translate(776.3125,828.5)"/>
<path d="M0 0 C5.1668779 2.78650402 8.91726208 7.51081435 11.0546875 12.9375 C13.07174673 21.56763201 12.67101732 30.53965188 8.16796875 38.25 C5.0527404 42.28192896 1.45964925 44.6579815 -3.3984375 46.27734375 C-5.83206222 46.44976083 -8.27164346 46.54400143 -10.7109375 46.58984375 C-12.00644531 46.62722656 -13.30195312 46.66460938 -14.63671875 46.703125 C-20.04245053 46.09126128 -23.02327367 43.76710456 -26.6484375 39.83984375 C-30.44130713 34.28599893 -30.76324303 29.51478774 -30.7734375 22.96484375 C-30.79792969 22.14822266 -30.82242188 21.33160156 -30.84765625 20.49023438 C-30.87578584 14.60646085 -29.70714436 10.18781532 -26.3984375 5.27734375 C-19.20188985 -1.55937651 -9.47231058 -2.85403495 0 0 Z " fill="#F9F9F9" transform="translate(667.3984375,827.72265625)"/>
<path d="M0 0 C6.47527339 3.4772341 9.25262958 9.38860084 11.359375 16.21875 C13.1957183 25.77144493 11.56471636 35.46826188 6.12109375 43.54296875 C2.29338002 48.21391645 -2.43228449 51.44386901 -8.3984375 52.671875 C-11.79789265 52.87337234 -14.28369688 52.21736087 -17.37890625 50.85546875 C-23.66274904 45.11804708 -26.86576175 38.44178585 -27.4921875 30.03125 C-27.7337793 18.67643548 -25.67086365 11.29291241 -18.03515625 2.82421875 C-12.91049717 -1.76100253 -6.40814646 -2.18787669 0 0 Z " fill="#090A08" transform="translate(575.25390625,276.76953125)"/>
<path d="M0 0 C9.60649386 5.57796418 21.02656697 17.63347477 24.53125 28.48046875 C24.63953125 29.26357422 24.63953125 29.26357422 24.75 30.0625 C13.83030778 33.43448475 0.60658735 30.64782634 -10.4375 28.875 C-11.149133 28.76467438 -11.86076599 28.65434875 -12.59396362 28.54067993 C-24.32970746 26.71891068 -35.82209277 24.32563268 -47.25 21.0625 C-44.50908127 11.80354282 -33.32801263 5.32152937 -25.25 0.875 C-16.73275035 -3.05239845 -8.70431818 -3.82828809 0 0 Z " fill="#F7F7F7" transform="translate(484.25,305.9375)"/>
<path d="M0 0 C4.82383526 2.82148855 7.24961518 6.17005741 9.30859375 11.34765625 C11.48058707 19.67976621 10.77310429 29.22872906 7 37 C3.93501098 41.5028851 0.56896896 45.91337191 -5 47 C-10.02237512 47.55804168 -11.95809068 47.62907733 -16.3125 45 C-21.7506723 39.62109934 -22.31362563 33.44376937 -22.4375 26.125 C-22.39052856 17.28415867 -20.40546434 9.40546434 -14 3 C-9.74073858 -0.52910232 -5.32260614 -0.96860147 0 0 Z " fill="#080908" transform="translate(405,266)"/>
<path d="M0 0 C3.61460464 -0.25316297 5.39943763 0.26800394 8.48046875 2.20703125 C12.49526131 5.73146747 13.23952257 10.11585089 14.3203125 15.171875 C14.53171875 16.04457031 14.743125 16.91726563 14.9609375 17.81640625 C16.09072941 22.69505312 16.87576879 27.26184079 16.4453125 32.296875 C13.83451366 35.39719862 11.95632123 36.18538219 8.0078125 37.046875 C6.48889894 37.15992391 4.96728087 37.23779238 3.4453125 37.296875 C2.30578125 37.36003906 1.16625 37.42320312 -0.0078125 37.48828125 C-9.56488263 37.79818624 -9.56488263 37.79818624 -13.26953125 35.921875 C-16.64388525 32.04569399 -17.62661775 27.88945362 -18.9296875 22.984375 C-19.20167969 22.05947266 -19.47367188 21.13457031 -19.75390625 20.18164062 C-21.21199304 14.92131212 -22.07666279 10.6936039 -20.5546875 5.296875 C-19.44140625 3.43359375 -19.44140625 3.43359375 -17.5546875 2.296875 C-11.77693414 1.01521441 -5.87042861 0.68219048 0 0 Z " fill="#0B0C0A" transform="translate(262.5546875,378.703125)"/>
<path d="M0 0 C3.0691541 -0.12276616 5.57139082 0.13317194 8.48828125 1.10546875 C11.83580205 4.26170265 12.46440962 7.81945519 13.67578125 12.16796875 C14.04058594 13.2353125 14.40539062 14.30265625 14.78125 15.40234375 C18.52566143 26.49500287 18.52566143 26.49500287 16.67578125 32.16796875 C14.7804425 34.7525216 13.78751608 35.13072381 10.67578125 36.16796875 C7.22847898 36.59128793 3.76687473 36.77203475 0.30078125 36.98046875 C-1.11847656 37.09551758 -1.11847656 37.09551758 -2.56640625 37.21289062 C-6.76059069 37.45735503 -9.52999683 37.55789682 -13.34765625 35.68359375 C-15.98747599 32.32382317 -16.74028473 29.24163258 -17.57421875 25.10546875 C-17.89138053 23.67696188 -18.20906871 22.24857175 -18.52734375 20.8203125 C-18.7903125 19.61503906 -19.05328125 18.40976562 -19.32421875 17.16796875 C-19.65421875 16.17796875 -19.98421875 15.18796875 -20.32421875 14.16796875 C-20.89790817 6.9394821 -20.89790817 6.9394821 -18.51171875 3.73046875 C-13.20840002 -0.05761605 -6.2826438 0.4540398 0 0 Z " fill="#0B0D0B" transform="translate(212.32421875,383.83203125)"/>
<path d="M0 0 C4.36079277 4.4599017 4.6660747 9.82578674 5.75 15.8125 C6.13114172 17.27474182 6.5242516 18.73400562 6.9375 20.1875 C8.04288369 25.11921187 8.83678708 28.91838537 6.24609375 33.43359375 C2.91952377 36.60398674 -0.16746122 36.84562144 -4.5625 37.1875 C-5.29662109 37.26871094 -6.03074219 37.34992188 -6.78710938 37.43359375 C-11.4101501 37.88482221 -15.71859687 38.01572276 -20.25 36.8125 C-24.88308095 32.88187937 -25.51414929 27.64286683 -26.5625 21.9375 C-26.74361328 21.06480469 -26.92472656 20.19210937 -27.11132812 19.29296875 C-28.09567525 14.19887663 -28.47528957 9.94672967 -27.25 4.8125 C-23.64479099 0.21275058 -18.6766764 -0.127225 -13.1875 -0.8671875 C-8.26657025 -1.40377824 -4.70335031 -1.71853184 0 0 Z " fill="#0A0B09" transform="translate(282.25,432.1875)"/>
<path d="M0 0 C4.59809038 1.79925276 6.80850458 4.61700917 9 9 C9.8396659 13.6563291 9.4988819 17.65394433 7.3125 21.875 C4.50411521 25.67011458 2.65304913 27.55532698 -2.07421875 28.34765625 C-7.2717783 28.69180705 -10.60708335 27.74911939 -14.625 24.41015625 C-17.78430898 21.17006948 -18.13438131 17.9155108 -18.375 13.5625 C-18.26949026 9.03311741 -16.98480212 6.48226914 -14 3 C-9.63585918 -0.90818581 -5.61364698 -0.65720745 0 0 Z " fill="#090A09" transform="translate(841,867)"/>
<path d="M0 0 C1.06992187 0.01353516 2.13984375 0.02707031 3.2421875 0.04101562 C5.87031511 0.07621376 8.49739194 0.12545307 11.125 0.1875 C11.63332316 8.25224249 11.63332316 8.25224249 9.734375 11.74609375 C9.12078125 12.36613281 8.5071875 12.98617187 7.875 13.625 C7.27171875 14.26308594 6.6684375 14.90117188 6.046875 15.55859375 C1.72072564 19.22526912 -1.64273158 19.50630804 -7.3125 19.5625 C-8.61058594 19.59085938 -9.90867187 19.61921875 -11.24609375 19.6484375 C-15.40311123 19.12042021 -17.0089791 18.19280416 -19.875 15.1875 C-20.99000247 11.354679 -21.25751709 9.17754424 -19.8125 5.4375 C-14.396483 -0.85206813 -7.64952115 -0.18370155 0 0 Z " fill="#F8F8F8" transform="translate(551.875,857.8125)"/>
<path d="M0 0 C0.66 0.33 1.32 0.66 2 1 C-2.40941529 9.43841043 -7.86436199 17.00031253 -16.8125 21 C-22.75979071 22.80436764 -29.61119861 23.36636472 -35.44140625 21.015625 C-38.95800875 18.91732075 -41.98798923 16.64676953 -44 13 C-44 12.34 -44 11.68 -44 11 C-43.030625 10.97421875 -42.06125 10.9484375 -41.0625 10.921875 C-27.07038777 10.394968 -14.61462569 8.02703053 -2.2578125 1.07421875 C-1.51273437 0.71972656 -0.76765625 0.36523438 0 0 Z " fill="#F6F6F6" transform="translate(505,350)"/>
<path d="M0 0 C2.625 2.875 2.625 2.875 3.25 6.375 C2.53174419 10.39723256 1.53391909 12.04688421 -1.375 14.875 C-5.84344517 17.58458909 -10.28919623 17.54080712 -15.375 16.875 C-19.23044798 14.87842873 -20.97305092 13.47792362 -23.375 9.875 C-23.30106399 5.80851935 -23.05170746 3.6337326 -20.3125 0.5625 C-13.3503471 -3.43703464 -7.02630867 -4.42397212 0 0 Z " fill="#0A0B0A" transform="translate(265.375,500.125)"/>
<path d="M0 0 C1.40668945 0.00966797 1.40668945 0.00966797 2.84179688 0.01953125 C4.30649414 0.04466797 4.30649414 0.04466797 5.80078125 0.0703125 C6.78884766 0.07933594 7.77691406 0.08835937 8.79492188 0.09765625 C11.2346189 0.1212282 13.67382822 0.15413228 16.11328125 0.1953125 C16.44328125 0.8553125 16.77328125 1.5153125 17.11328125 2.1953125 C15.87578125 2.3396875 14.63828125 2.4840625 13.36328125 2.6328125 C10.54823626 2.98219752 7.84313155 3.39910616 5.11328125 4.1953125 C5.77328125 6.5053125 6.43328125 8.8153125 7.11328125 11.1953125 C6.12328125 11.1953125 5.13328125 11.1953125 4.11328125 11.1953125 C3.12328125 11.6903125 3.12328125 11.6903125 2.11328125 12.1953125 C1.45328125 11.5353125 0.79328125 10.8753125 0.11328125 10.1953125 C-1.86671875 10.8553125 -3.84671875 11.5153125 -5.88671875 12.1953125 C-6.21671875 47.8353125 -6.54671875 83.4753125 -6.88671875 120.1953125 C-7.21671875 120.1953125 -7.54671875 120.1953125 -7.88671875 120.1953125 C-7.95673483 104.84460322 -8.00967055 89.4939013 -8.04215527 74.14306831 C-8.057638 67.0157348 -8.07875418 59.88850039 -8.11303711 52.76123047 C-8.14608081 45.88832531 -8.16355158 39.01552336 -8.17135048 32.14254379 C-8.17691122 29.5149765 -8.18776928 26.88741512 -8.20390892 24.25989151 C-8.22555566 20.59126655 -8.22869099 16.92307264 -8.22729492 13.25439453 C-8.23808075 12.15819794 -8.24886658 11.06200134 -8.25997925 9.93258667 C-8.25585526 8.93696716 -8.25173126 7.94134766 -8.2474823 6.91555786 C-8.25024768 6.04722887 -8.25301306 5.17889988 -8.25586224 4.28425789 C-8.13404489 3.59490591 -8.01222754 2.90555393 -7.88671875 2.1953125 C-4.63281887 0.02604591 -3.75275918 -0.04548799 0 0 Z " fill="#1C1D1C" transform="translate(415.88671875,771.8046875)"/>
<path d="M0 0 C0.66 0 1.32 0 2 0 C2.02322608 8.2236651 2.04096727 16.44731636 2.05181217 24.6710062 C2.0570186 28.49007391 2.06407535 32.30911909 2.07543945 36.12817383 C2.08634821 39.81752174 2.0922937 43.50684806 2.09487724 47.19621086 C2.09671714 48.59992754 2.10030989 50.00364312 2.10573006 51.40735054 C2.11304655 53.3816626 2.11340896 55.35599665 2.11352539 57.33032227 C2.115746 58.45173111 2.11796661 59.57313995 2.12025452 60.72853088 C1.99146409 64.23221539 1.67604589 67.558368 1 71 C0.01 71.495 0.01 71.495 -1 72 C-1.02314035 62.90767909 -1.04092375 53.81536827 -1.05181217 44.72302437 C-1.05703728 40.50137418 -1.06412822 36.27974409 -1.07543945 32.05810547 C-1.0862815 27.98623328 -1.09227964 23.91438047 -1.09487724 19.84249496 C-1.09672911 18.28671844 -1.10034518 16.73094302 -1.10573006 15.17517471 C-1.11295795 13.00103693 -1.1139902 10.82697984 -1.11352539 8.65283203 C-1.115746 7.41373077 -1.11796661 6.17462952 -1.12025452 4.89797974 C-1 2 -1 2 0 0 Z " fill="#020202" transform="translate(185,773)"/>
<path d="M0 0 C0.33 0 0.66 0 1 0 C1.33 2.97 1.66 5.94 2 9 C2.99 8.67 3.98 8.34 5 8 C5 8.66 5 9.32 5 10 C5.99 10.33 6.98 10.66 8 11 C6.02 13.97 6.02 13.97 4 17 C3.01 16.67 2.02 16.34 1 16 C1.04600342 16.80743652 1.09200684 17.61487305 1.1394043 18.44677734 C1.33801061 22.08885504 1.5130471 25.73168896 1.6875 29.375 C1.76033203 30.64601563 1.83316406 31.91703125 1.90820312 33.2265625 C1.96298828 34.43828125 2.01777344 35.65 2.07421875 36.8984375 C2.13182373 38.01911621 2.18942871 39.13979492 2.2487793 40.29443359 C2.16668213 41.18727051 2.08458496 42.08010742 2 43 C1.01 43.66 0.02 44.32 -1 45 C-1.02527124 38.75204325 -1.04283344 32.50409959 -1.05493164 26.25610352 C-1.05997298 24.12881986 -1.06680591 22.00153969 -1.07543945 19.87426758 C-1.08751379 16.82372174 -1.09323014 13.77322155 -1.09765625 10.72265625 C-1.10281754 9.76537125 -1.10797882 8.80808624 -1.11329651 7.8217926 C-1.11337204 6.94095505 -1.11344757 6.06011749 -1.11352539 5.15258789 C-1.115746 4.37315323 -1.11796661 3.59371857 -1.12025452 2.79066467 C-1 1 -1 1 0 0 Z " fill="#040404" transform="translate(315,811)"/>
<path d="M0 0 C3.62493334 -0.05787784 7.24974857 -0.0935542 10.875 -0.125 C11.90753906 -0.14175781 12.94007813 -0.15851562 14.00390625 -0.17578125 C14.99003906 -0.18222656 15.97617187 -0.18867187 16.9921875 -0.1953125 C18.35899658 -0.21102295 18.35899658 -0.21102295 19.75341797 -0.22705078 C22 0 22 0 24 2 C24.26991906 4.68839385 24.08737357 7.29141936 24 10 C22.23537317 6.91190305 22 5.76687864 22 2 C20.783125 2.185625 19.56625 2.37125 18.3125 2.5625 C12.16115013 3.2700035 6.13713679 2.61655934 0 2 C0 1.34 0 0.68 0 0 Z " fill="#1C1D1C" transform="translate(263,772)"/>
<path d="M0 0 C-1.4562545 0.67119549 -2.91507867 1.33681807 -4.375 2 C-5.59316406 2.556875 -5.59316406 2.556875 -6.8359375 3.125 C-9 4 -9 4 -11 4 C-11.33 4.99 -11.66 5.98 -12 7 C-14.375 8.5625 -14.375 8.5625 -17 10 C-17.99 10.66 -18.98 11.32 -20 12 C-17.47466558 6.06482317 -11.89511205 2.70986048 -6.1875 0.0625 C-3 -1 -3 -1 0 0 Z M-21 12 C-21 15 -21 15 -21 15 Z " fill="#161717" transform="translate(535,806)"/>
<path d="M0 0 C0 0.66 0 1.32 0 2 C-0.99 2 -1.98 2 -3 2 C-2.67 2.99 -2.34 3.98 -2 5 C-2.66 5.66 -3.32 6.32 -4 7 C-4.66 5.35 -5.32 3.7 -6 2 C-6.66 2 -7.32 2 -8 2 C-8.33 2.99 -8.66 3.98 -9 5 C-9.66 4.34 -10.32 3.68 -11 3 C-7.18178484 -0.02823961 -4.81391924 -1.49397494 0 0 Z M-13 4 C-12.34 4.33 -11.68 4.66 -11 5 C-11.99 5.66 -12.98 6.32 -14 7 C-13.67 6.01 -13.34 5.02 -13 4 Z " fill="#0A0C0A" transform="translate(165,346)"/>
<path d="M0 0 C0 0.33 0 0.66 0 1 C-0.94875 1.28875 -1.8975 1.5775 -2.875 1.875 C-6.05211578 2.76825109 -6.05211578 2.76825109 -8 5 C-8.6425235 7.06874034 -8.6425235 7.06874034 -9 9 C-8.34 9 -7.68 9 -7 9 C-7.33 10.65 -7.66 12.3 -8 14 C-8.66 14 -9.32 14 -10 14 C-11.57047153 6.1647127 -11.57047153 6.1647127 -9.5 1.9375 C-6.20522591 -0.61594992 -4.06533399 -0.3908975 0 0 Z " fill="#040404" transform="translate(265,434)"/>
<path d="M0 0 C0.66 0.33 1.32 0.66 2 1 C-6.07744875 11.74259681 -6.07744875 11.74259681 -12 15 C-10.58397787 11.85093585 -8.86264918 9.50476328 -6.5625 6.9375 C-5.96566406 6.26589844 -5.36882812 5.59429687 -4.75390625 4.90234375 C-3.20703058 3.2245521 -1.62828434 1.59840757 0 0 Z " fill="#161615" transform="translate(513,364)"/>
<path d="M0 0 C0 1.98 0 3.96 0 6 C-0.66 6 -1.32 6 -2 6 C-2 4.35 -2 2.7 -2 1 C-8.27 1 -14.54 1 -21 1 C-21 0.67 -21 0.34 -21 0 C-18.06281233 -0.19461488 -15.12550068 -0.38097593 -12.1875 -0.5625 C-11.35412109 -0.61857422 -10.52074219 -0.67464844 -9.66210938 -0.73242188 C-8.85966797 -0.78076172 -8.05722656 -0.82910156 -7.23046875 -0.87890625 C-6.49207764 -0.9260376 -5.75368652 -0.97316895 -4.99291992 -1.02172852 C-3 -1 -3 -1 0 0 Z " fill="#313230" transform="translate(565,857)"/>
<path d="M0 0 C0.66 0.66 1.32 1.32 2 2 C1.9765625 5.2578125 1.9765625 5.2578125 1.625 9.125 C1.51414062 10.40632812 1.40328125 11.68765625 1.2890625 13.0078125 C1.19367188 13.99523437 1.09828125 14.98265625 1 16 C0.34 15.67 -0.32 15.34 -1 15 C-1.02685412 12.68756208 -1.04632841 10.3750373 -1.0625 8.0625 C-1.07410156 6.77472656 -1.08570313 5.48695313 -1.09765625 4.16015625 C-1 1 -1 1 0 0 Z " fill="#020202" transform="translate(315,865)"/>
<path d="M0 0 C0.33 0 0.66 0 1 0 C1 6.27 1 12.54 1 19 C0.67 18.01 0.34 17.02 0 16 C-0.66 16 -1.32 16 -2 16 C-2.33 14.35 -2.66 12.7 -3 11 C-2.34 11 -1.68 11 -1 11 C-0.67 9.02 -0.34 7.04 0 5 C-0.66 4.67 -1.32 4.34 -2 4 C-1.34 2.68 -0.68 1.36 0 0 Z " fill="#020201" transform="translate(434,808)"/>
<path d="M0 0 C0.99 0.495 0.99 0.495 2 1 C1.67 2.65 1.34 4.3 1 6 C0.67 6 0.34 6 0 6 C0 4.02 0 2.04 0 0 Z M0 7 C-1.65 8.65 -3.3 10.3 -5 12 C-4.67 11.01 -4.34 10.02 -4 9 C-6.97 8.505 -6.97 8.505 -10 8 C-10 7.67 -10 7.34 -10 7 C-6.33694766 6.25073929 -3.57644848 5.7619986 0 7 Z " fill="#030302" transform="translate(564,835)"/>
<path d="M0 0 C0.33 0 0.66 0 1 0 C1.99 5.28 2.98 10.56 4 16 C3.34 16 2.68 16 2 16 C-1.62870159 5.62642369 -1.62870159 5.62642369 0 0 Z " fill="#141514" transform="translate(174,405)"/>
<path d="M0 0 C0 3.93169105 -1.39419615 5.16427228 -4 8 C-4.66 8 -5.32 8 -6 8 C-6 8.66 -6 9.32 -6 10 C-6.99 9.67 -7.98 9.34 -9 9 C-6.03 6.03 -3.06 3.06 0 0 Z " fill="#010101" transform="translate(376,177)"/>
<path d="M0 0 C0.33 0.99 0.66 1.98 1 3 C-2.63 5.31 -6.26 7.62 -10 10 C-10 9.01 -10 8.02 -10 7 C-7.8125 5.17578125 -7.8125 5.17578125 -5 3.3125 C-3.6078125 2.37857422 -3.6078125 2.37857422 -2.1875 1.42578125 C-1.1046875 0.72001953 -1.1046875 0.72001953 0 0 Z " fill="#111110" transform="translate(733,656)"/>
<path d="M0 0 C-2.97 2.475 -2.97 2.475 -6 5 C-6.33 4.34 -6.66 3.68 -7 3 C-7.66 2.67 -8.32 2.34 -9 2 C-9.33 1.34 -9.66 0.68 -10 0 C-6.33694766 -0.74926071 -3.57644848 -1.2380014 0 0 Z " fill="#141514" transform="translate(269,532)"/>
<path d="M0 0 C2.97 0.495 2.97 0.495 6 1 C5.125 5.75 5.125 5.75 4 8 C3.34 7.67 2.68 7.34 2 7 C2.33 6.01 2.66 5.02 3 4 C2.34 4 1.68 4 1 4 C0.67 2.68 0.34 1.36 0 0 Z " fill="#040504" transform="translate(333,446)"/>
<path d="M0 0 C3.70066609 0.90460727 5.56497978 1.43868358 7.9375 4.5 C8.288125 5.325 8.63875 6.15 9 7 C8.67 7.66 8.34 8.32 8 9 C6.84775972 8.07038578 5.70340824 7.1309875 4.5625 6.1875 C3.60537109 5.40439453 3.60537109 5.40439453 2.62890625 4.60546875 C1 3 1 3 0 0 Z " fill="#131313" transform="translate(577,717)"/>
<path d="M0 0 C3.99231996 2.05011025 6.14080646 3.8684588 8 8 C7.67 8.99 7.34 9.98 7 11 C6.34 10.01 5.68 9.02 5 8 C4.13540172 6.97034205 3.26018732 5.9495124 2.375 4.9375 C0 2 0 2 0 0 Z " fill="#111211" transform="translate(557,825)"/>
<path d="M0 0 C2.01822917 0.26041667 4.03645833 0.52083333 6.0546875 0.78125 C8.00498344 1.0372485 8.00498344 1.0372485 10 1 C10 1.66 10 2.32 10 3 C9.34 3 8.68 3 8 3 C8 3.66 8 4.32 8 5 C4.5625 4.1875 4.5625 4.1875 1 3 C0.67 2.01 0.34 1.02 0 0 Z " fill="#0F1010" transform="translate(418,337)"/>
<path d="M0 0 C0.94875 0.185625 1.8975 0.37125 2.875 0.5625 C3.57625 0.706875 4.2775 0.85125 5 1 C5 1.33 5 1.66 5 2 C-0.15171623 2.09038099 -4.91913204 1.84681133 -10 1 C-6.38659291 -1.36261233 -4.11878697 -0.92462565 0 0 Z " fill="#2F2F2E" transform="translate(362,716)"/>
<path d="M0 0 C1.258125 -0.04125 2.51625 -0.0825 3.8125 -0.125 C4.52019531 -0.14820313 5.22789062 -0.17140625 5.95703125 -0.1953125 C8 0 8 0 11 2 C5.06 2.495 5.06 2.495 -1 3 C-0.67 2.01 -0.34 1.02 0 0 Z " fill="#161616" transform="translate(274,549)"/>
<path d="M0 0 C0.99 0 1.98 0 3 0 C3.33 1.32 3.66 2.64 4 4 C1.24921116 4.91692961 -0.35948913 5.10886083 -3.1875 5.0625 C-5.0746875 5.0315625 -5.0746875 5.0315625 -7 5 C-7 4.67 -7 4.34 -7 4 C-3.535 3.505 -3.535 3.505 0 3 C0 2.01 0 1.02 0 0 Z " fill="#010202" transform="translate(249,891)"/>
<path d="M0 0 C3.45925163 1.2491742 6.14693203 2.67527795 9 5 C8.67 5.99 8.34 6.98 8 8 C7.236875 7.38125 6.47375 6.7625 5.6875 6.125 C3.00374191 3.94402948 3.00374191 3.94402948 0 2 C0 1.34 0 0.68 0 0 Z " fill="#10100F" transform="translate(774,826)"/>
<path d="M0 0 C2.97 0.99 5.94 1.98 9 3 C9 2.34 9 1.68 9 1 C9.99 1.33 10.98 1.66 12 2 C11.67 2.66 11.34 3.32 11 4 C4.6 4.49230769 4.6 4.49230769 1.5625 2 C1.046875 1.34 0.53125 0.68 0 0 Z " fill="#010201" transform="translate(248,412)"/>
<path d="M0 0 C0 3 0 3 -1 6 C-3.5625 7.6875 -3.5625 7.6875 -6 9 C-6 6 -6 6 -4.6875 4.39453125 C-4.130625 3.87246094 -3.57375 3.35039062 -3 2.8125 C-2.443125 2.28269531 -1.88625 1.75289063 -1.3125 1.20703125 C-0.6628125 0.60955078 -0.6628125 0.60955078 0 0 Z " fill="#020202" transform="translate(438,299)"/>
<path d="M0 0 C0 3 0 3 -2.5 5.6875 C-3.325 6.450625 -4.15 7.21375 -5 8 C-5.66 7.67 -6.32 7.34 -7 7 C-3.375 1.125 -3.375 1.125 0 0 Z " fill="#010101" transform="translate(277,877)"/>
<path d="M0 0 C0.66 0 1.32 0 2 0 C1.67 1.98 1.34 3.96 1 6 C0.34 6 -0.32 6 -1 6 C-1.33 6.66 -1.66 7.32 -2 8 C-1.125 1.125 -1.125 1.125 0 0 Z " fill="#151514" transform="translate(310,453)"/>
<path d="M0 0 C0.99 0.33 1.98 0.66 3 1 C2.74438677 3.3431213 2.40729228 5.67843403 2 8 C1.01 8.495 1.01 8.495 0 9 C0 6.03 0 3.06 0 0 Z " fill="#020202" transform="translate(789,845)"/>
<path d="M0 0 C2.54379491 1.84205838 4.83312509 3.72478134 7 6 C6.67 6.66 6.34 7.32 6 8 C1.3125 4.38671875 1.3125 4.38671875 0 3 C0 2.01 0 1.02 0 0 Z " fill="#181919" transform="translate(187,545)"/>
<path d="M0 0 C0.66 0.33 1.32 0.66 2 1 C1.01 1.33 0.02 1.66 -1 2 C-1.33 2.99 -1.66 3.98 -2 5 C-2.66 4.34 -3.32 3.68 -4 3 C-2.68 2.01 -1.36 1.02 0 0 Z M-6 4 C-5.34 4.33 -4.68 4.66 -4 5 C-4.99 5.66 -5.98 6.32 -7 7 C-6.67 6.01 -6.34 5.02 -6 4 Z " fill="#191919" transform="translate(158,346)"/>
<path d="M0 0 C0.99 0 1.98 0 3 0 C1.71480435 2.86697492 0.42870746 4.97607712 -2 7 C-2.66 7 -3.32 7 -4 7 C-4 5 -4 5 -2.5625 3.5 C-2.046875 3.005 -1.53125 2.51 -1 2 C-0.67 1.34 -0.34 0.68 0 0 Z " fill="#000100" transform="translate(800,879)"/>
<path d="M0 0 C3.34249629 0.59687434 5.46436342 1.73603877 8 4 C8 4.66 8 5.32 8 6 C4.63408134 4.55746343 2.48952921 2.66735273 0 0 Z " fill="#161615" transform="translate(671,690)"/>
<path d="M0 0 C0.33 0 0.66 0 1 0 C1.125 3.375 1.125 3.375 1 7 C0.34 7.66 -0.32 8.32 -1 9 C-2.0326802 6.21176345 -2.04509293 5.1322726 -1.0625 2.25 C-0.711875 1.5075 -0.36125 0.765 0 0 Z " fill="#101110" transform="translate(289,456)"/>
<path d="M0 0 C-0.598125 0.28875 -1.19625 0.5775 -1.8125 0.875 C-4.19327792 2.04742026 -4.19327792 2.04742026 -7 4 C-7.99 3.67 -8.98 3.34 -10 3 C-7.29536552 -0.8183075 -4.37912428 -0.24787496 0 0 Z " fill="#050606" transform="translate(203,386)"/>
<path d="M0 0 C1.65 0 3.3 0 5 0 C5 0.99 5 1.98 5 3 C3.02 3 1.04 3 -1 3 C-0.67 2.01 -0.34 1.02 0 0 Z " fill="#101110" transform="translate(275,349)"/>
</svg>
